<?xml version="1.0" encoding="UTF-8"?>
<svg width="4px" height="15px" viewBox="0 0 4 15" version="1.1" xmlns="http://www.w3.org/2000/svg" xmlns:xlink="http://www.w3.org/1999/xlink">
    <title>3dots_verticals</title>
    <g id="Dashboard-" stroke="none" stroke-width="1" fill="none" fill-rule="evenodd">
        <g id="Artboard-00_3_1" transform="translate(-1179.000000, -345.000000)" fill="#AEB4B7">
            <g id="Group-3" transform="translate(257.000000, 233.000000)">
                <path d="M929.324428,118 C930.175252,118 930.864982,118.689729 930.864982,119.540553 C930.864982,120.391378 930.175252,121.081107 929.324428,121.081107 C928.473604,121.081107 927.783875,120.391378 927.783875,119.540553 C927.783875,118.689729 928.473604,118 929.324428,118 Z M923.932491,118 C924.783315,118 925.473044,118.689729 925.473044,119.540553 C925.473044,120.391378 924.783315,121.081107 923.932491,121.081107 C923.081667,121.081107 922.391937,120.391378 922.391937,119.540553 C922.391937,118.689729 923.081667,118 923.932491,118 Z M918.540554,118 C919.391378,118 920.081107,118.689729 920.081107,119.540553 C920.081107,120.391378 919.391378,121.081107 918.540554,121.081107 C917.689729,121.081107 917,120.391378 917,119.540553 C917,118.689729 917.689729,118 918.540554,118 Z" id="3dots_verticals" transform="translate(923.932491, 119.540554) rotate(90.000000) translate(-923.932491, -119.540554) "></path>
            </g>
        </g>
    </g>
</svg>