<?xml version="1.0" encoding="UTF-8"?>
<svg width="20px" height="24px" viewBox="0 0 20 24" version="1.1" xmlns="http://www.w3.org/2000/svg" xmlns:xlink="http://www.w3.org/1999/xlink">
    <title>Admin</title>
    <g id="Dashboard-" stroke="none" stroke-width="1" fill="none" fill-rule="evenodd">
        <g id="Artboard-00_5" transform="translate(-21.000000, -419.000000)" fill="#5F6165" fill-rule="nonzero" stroke="#5F6165" stroke-width="0.3">
            <g id="Group-7-Copy-2" transform="translate(0.000000, 404.000000)">
                <g id="secure-shield" transform="translate(22.000000, 16.000000)">
                    <path d="M18.4505664,3.79891016 C15.4236328,2.96952734 12.3789102,1.67810156 9.64553906,0.06428125 C9.50034766,-0.0214414062 9.32017969,-0.0214414062 9.17503125,0.06428125 C6.3628125,1.72446484 3.48261719,2.94602344 0.369746094,3.79891016 C0.168652344,3.85395313 0.0292617188,4.03674219 0.0292617188,4.24526953 L0.0292617188,8.97380859 C0.0292617188,13.8431563 2.275625,17.0663281 4.16014844,18.9127383 C6.18896094,20.9006875 8.55224219,22.000043 9.41028516,22.000043 C10.2682422,22.000043 12.6315234,20.9006875 14.6603359,18.9127383 C16.5448164,17.0663711 18.7910508,13.8431992 18.7910508,8.97380859 L18.7910508,4.24522656 C18.7910508,4.03674219 18.6516602,3.85395313 18.4505664,3.79891016 Z M17.8655039,8.97376563 C17.8655039,13.521707 15.7703047,16.5293047 14.0125391,18.2515781 C12.017457,20.2064414 9.88435937,21.0744102 9.41028516,21.0744102 C8.93621094,21.0744102 6.80298437,20.2064414 4.80785938,18.2515781 C3.05013672,16.5292617 0.954851563,13.521707 0.954851563,8.97376563 L0.954851563,4.59653906 C3.93164062,3.75134375 6.70389844,2.57180859 9.41037109,0.999023438 C12.0492539,2.53008594 14.9598281,3.76827344 17.8655039,4.59636719 L17.8655039,8.97376563 Z" id="Shape"></path>
                    <path d="M13.219207,7.73802734 C13.3285625,7.62867188 13.4740977,7.56847266 13.6288711,7.56847266 C13.7837305,7.56847266 13.9291367,7.62867188 14.0385781,7.73802734 C14.2643789,7.96382813 14.2643789,8.33138281 14.0384922,8.55726953 L8.33400391,14.2618008 C8.22464844,14.3711563 8.07911328,14.4313555 7.92433984,14.4313555 C7.76956641,14.4313555 7.62403125,14.3711563 7.51463281,14.2618008 L4.78207813,11.529332 C4.55619141,11.3034453 4.55619141,10.9358906 4.78199219,10.7100898 C4.89139063,10.6007344 5.03692578,10.5404492 5.19174219,10.5404492 C5.34655859,10.5404492 5.49200781,10.6006484 5.60136328,10.7100039 L7.59704688,12.7057305 C7.68388672,12.7924844 7.80153516,12.8412539 7.92429688,12.8412539 C8.04705859,12.8412539 8.16470703,12.7925273 8.25146094,12.7057305 L13.219207,7.73802734 Z" id="Shape"></path>
                    <path d="M5.30827344,4.54476172 C5.21460156,4.30692969 4.94591797,4.19009766 4.70804297,4.2838125 C3.88132422,4.60955859 3.03277734,4.90939453 2.18599219,5.17502734 C1.99301953,5.23561328 1.86170703,5.41436328 1.86170703,5.61657422 L1.86170703,7.4036875 C1.86170703,7.65926562 2.06894531,7.86646094 2.32448047,7.86646094 C2.58001563,7.86646094 2.78725391,7.65926562 2.78725391,7.4036875 L2.78725391,5.95478125 C3.54689844,5.709 4.30572656,5.43713672 5.04732422,5.14490625 C5.28515625,5.05127734 5.40198828,4.78259375 5.30827344,4.54476172 Z" id="Path"></path>
                    <path d="M6.18737109,4.63254687 C6.24946094,4.63254687 6.31249609,4.62004297 6.37295313,4.59366016 L6.38146094,4.58996484 C6.61559766,4.48735547 6.72104297,4.21480469 6.61843359,3.98075391 C6.51573828,3.74661719 6.24164062,3.64069922 6.00776172,3.74322266 L6.00028516,3.74644531 C5.76601953,3.84875391 5.66023047,4.12108984 5.76253906,4.35526953 C5.83846484,4.52912109 6.00883594,4.63254687 6.18737109,4.63254687 Z" id="Path"></path>
                    <path d="M14.9239922,14.9223164 C14.7101367,14.7825391 14.4233633,14.8426523 14.2834141,15.0565937 C13.9020664,15.6402812 13.4546758,16.1992187 12.9534883,16.7177227 C12.541332,17.1440586 12.0947148,17.5414336 11.6260547,17.8987187 C11.4228555,18.0536641 11.3837539,18.3440469 11.5386562,18.547332 C11.629793,18.6667422 11.7675937,18.7295625 11.9069844,18.7295625 C12.0048672,18.7295625 12.1034805,18.698668 12.1872695,18.6347305 C12.6927969,18.2492578 13.1744766,17.8207305 13.6188594,17.3610508 C14.1607383,16.8005664 14.6449961,16.1955664 15.0582695,15.5628516 C15.1981328,15.3488672 15.1379336,15.0620937 14.9239922,14.9223164 Z" id="Path"></path>
                    <path d="M10.5513203,18.6245039 L10.5247656,18.6401445 C10.3036055,18.7682344 10.2280234,19.0513125 10.3560703,19.2724727 C10.4418789,19.4207148 10.5972109,19.5034727 10.7570117,19.5034727 C10.8356445,19.5034727 10.9154805,19.4834063 10.9883984,19.441082 L11.0190352,19.4230781 C11.2395937,19.2939141 11.3136719,19.0104492 11.1845078,18.7898906 C11.0552578,18.569418 10.77175,18.4954688 10.5513203,18.6245039 Z" id="Path"></path>
                </g>
            </g>
        </g>
    </g>
</svg>