<?xml version="1.0" encoding="UTF-8"?>
<svg width="22px" height="22px" viewBox="0 0 22 22" version="1.1" xmlns="http://www.w3.org/2000/svg" xmlns:xlink="http://www.w3.org/1999/xlink">
    <title>Analytics</title>
    <g id="Dashboard-" stroke="none" stroke-width="1" fill="none" fill-rule="evenodd">
        <g id="Artboard-00_5" transform="translate(-21.000000, -253.000000)" fill="#5C6168">
            <g id="Group-7-Copy-2" transform="translate(0.000000, 239.000000)">
                <g id="Shape" transform="translate(21.000000, 14.000000)">
                    <path d="M2.75,22 C2.3705,22 2.0625,21.6926875 2.0625,21.3125 L2.0625,18.5625 C2.0625,18.1823125 2.3705,17.875 2.75,17.875 C3.1295,17.875 3.4375,18.1823125 3.4375,18.5625 L3.4375,21.3125 C3.4375,21.6926875 3.1295,22 2.75,22 L2.75,22 Z"></path>
                    <path d="M13.75,22 C13.3698125,22 13.0625,21.6926875 13.0625,21.3125 L13.0625,15.8125 C13.0625,15.4323125 13.3698125,15.125 13.75,15.125 C14.1301875,15.125 14.4375,15.4323125 14.4375,15.8125 L14.4375,21.3125 C14.4375,21.6926875 14.1301875,22 13.75,22 L13.75,22 Z"></path>
                    <path d="M8.25,22 C7.8705,22 7.5625,21.6926875 7.5625,21.3125 L7.5625,11.6875 C7.5625,11.308 7.8705,11 8.25,11 C8.6295,11 8.9375,11.308 8.9375,11.6875 L8.9375,21.3125 C8.9375,21.6926875 8.6295,22 8.25,22 L8.25,22 Z"></path>
                    <path d="M2.75,15.8125 C1.233375,15.8125 0,14.579125 0,13.0625 C0,11.545875 1.233375,10.3125 2.75,10.3125 C4.266625,10.3125 5.5,11.545875 5.5,13.0625 C5.5,14.579125 4.266625,15.8125 2.75,15.8125 L2.75,15.8125 Z M2.75,11.6875 C1.9916875,11.6875 1.375,12.3041875 1.375,13.0625 C1.375,13.8208125 1.9916875,14.4375 2.75,14.4375 C3.5083125,14.4375 4.125,13.8208125 4.125,13.0625 C4.125,12.3041875 3.5083125,11.6875 2.75,11.6875 L2.75,11.6875 Z"></path>
                    <path d="M19.25,22 C18.8698125,22 18.5625,21.6926875 18.5625,21.3125 L18.5625,8.25 C18.5625,7.8705 18.8698125,7.5625 19.25,7.5625 C19.6301875,7.5625 19.9375,7.8705 19.9375,8.25 L19.9375,21.3125 C19.9375,21.6926875 19.6301875,22 19.25,22 L19.25,22 Z"></path>
                    <path d="M21.3125,22 L0.6875,22 C0.308,22 0,21.6926875 0,21.3125 C0,20.9323125 0.308,20.625 0.6875,20.625 L21.3125,20.625 C21.6926875,20.625 22,20.9323125 22,21.3125 C22,21.6926875 21.6926875,22 21.3125,22 L21.3125,22 Z"></path>
                    <path d="M8.25,8.9375 C6.733375,8.9375 5.5,7.704125 5.5,6.1875 C5.5,4.670875 6.733375,3.4375 8.25,3.4375 C9.766625,3.4375 11,4.670875 11,6.1875 C11,7.704125 9.766625,8.9375 8.25,8.9375 L8.25,8.9375 Z M8.25,4.8125 C7.4916875,4.8125 6.875,5.4291875 6.875,6.1875 C6.875,6.9458125 7.4916875,7.5625 8.25,7.5625 C9.0083125,7.5625 9.625,6.9458125 9.625,6.1875 C9.625,5.4291875 9.0083125,4.8125 8.25,4.8125 L8.25,4.8125 Z"></path>
                    <path d="M19.25,5.5 C17.733375,5.5 16.5,4.266625 16.5,2.75 C16.5,1.233375 17.733375,0 19.25,0 C20.766625,0 22,1.233375 22,2.75 C22,4.266625 20.766625,5.5 19.25,5.5 L19.25,5.5 Z M19.25,1.375 C18.4916875,1.375 17.875,1.9916875 17.875,2.75 C17.875,3.5083125 18.4916875,4.125 19.25,4.125 C20.0083125,4.125 20.625,3.5083125 20.625,2.75 C20.625,1.9916875 20.0083125,1.375 19.25,1.375 L19.25,1.375 Z"></path>
                    <path d="M13.75,13.0625 C12.233375,13.0625 11,11.829125 11,10.3125 C11,8.795875 12.233375,7.5625 13.75,7.5625 C15.266625,7.5625 16.5,8.795875 16.5,10.3125 C16.5,11.829125 15.266625,13.0625 13.75,13.0625 L13.75,13.0625 Z M13.75,8.9375 C12.9916875,8.9375 12.375,9.5541875 12.375,10.3125 C12.375,11.0708125 12.9916875,11.6875 13.75,11.6875 C14.5083125,11.6875 15.125,11.0708125 15.125,10.3125 C15.125,9.5541875 14.5083125,8.9375 13.75,8.9375 L13.75,8.9375 Z"></path>
                    <path d="M12.0690625,9.7398125 C11.925375,9.7398125 11.781,9.695125 11.65725,9.6023125 L9.5184375,7.998375 C9.2145625,7.770125 9.153375,7.33975 9.3809375,7.035875 C9.6091875,6.7326875 10.0395625,6.6708125 10.3434375,6.898375 L12.48225,8.5023125 C12.786125,8.7305625 12.848,9.1609375 12.61975,9.4648125 C12.4843125,9.64425 12.2780625,9.7398125 12.0690625,9.7398125 L12.0690625,9.7398125 Z"></path>
                    <path d="M14.9579375,9.3383125 C14.8176875,9.3383125 14.67675,9.2956875 14.554375,9.207 C14.2470625,8.9835625 14.179,8.553875 14.4024375,8.24725 L17.4851875,4.0074375 C17.70725,3.6994375 18.1369375,3.6320625 18.4449375,3.8555 C18.75225,4.0789375 18.8203125,4.508625 18.596875,4.81525 L15.514125,9.0550625 C15.3800625,9.2406875 15.170375,9.3383125 14.9579375,9.3383125 L14.9579375,9.3383125 Z"></path>
                    <path d="M4.0954375,12.068375 C3.944875,12.068375 3.7929375,12.0195625 3.6664375,11.9178125 C3.3694375,11.680625 3.322,11.2475 3.5591875,10.9511875 L6.3683125,7.440125 C6.6055,7.143125 7.038625,7.0956875 7.33425,7.332875 C7.63125,7.5700625 7.6786875,8.0025 7.4415,8.2988125 L4.632375,11.8105625 C4.4969375,11.9796875 4.296875,12.068375 4.0954375,12.068375 L4.0954375,12.068375 Z"></path>
                </g>
            </g>
        </g>
    </g>
</svg>