<?xml version="1.0" encoding="UTF-8"?>
<svg width="14px" height="14px" viewBox="0 0 14 14" version="1.1" xmlns="http://www.w3.org/2000/svg" xmlns:xlink="http://www.w3.org/1999/xlink">
    <title>close</title>
    <g id="Dashboard-" stroke="none" stroke-width="1" fill="none" fill-rule="evenodd">
        <g id="Artboard-00_3" transform="translate(-1233.000000, -105.000000)" fill="#B7C0CC">
            <g id="Group-3" transform="translate(1221.000000, 93.000000)">
                <g id="close" transform="translate(12.000000, 12.000000)">
                    <path d="M-1.2789175,6.94773064 C-1.2789175,6.21319192 -0.69196459,5.61773064 0.0543719842,5.61773064 L13.347793,5.61773064 C14.0841485,5.61773064 14.6810825,6.20807086 14.6810825,6.94773064 L14.6810825,6.94773064 C14.6810825,7.68226936 14.0941296,8.27773064 13.347793,8.27773064 L0.0543719842,8.27773064 C-0.681983464,8.27773064 -1.2789175,7.68739043 -1.2789175,6.94773064 L-1.2789175,6.94773064 Z" id="Rectangle" transform="translate(6.701083, 6.947731) rotate(45.000000) translate(-6.701083, -6.947731) "></path>
                    <path d="M-1.2789175,6.94773064 C-1.2789175,6.21319192 -0.69196459,5.61773064 0.0543719842,5.61773064 L13.347793,5.61773064 C14.0841485,5.61773064 14.6810825,6.20807086 14.6810825,6.94773064 L14.6810825,6.94773064 C14.6810825,7.68226936 14.0941296,8.27773064 13.347793,8.27773064 L0.0543719842,8.27773064 C-0.681983464,8.27773064 -1.2789175,7.68739043 -1.2789175,6.94773064 L-1.2789175,6.94773064 Z" id="Rectangle" transform="translate(6.701083, 6.947731) scale(-1, 1) rotate(45.000000) translate(-6.701083, -6.947731) "></path>
                </g>
            </g>
        </g>
    </g>
</svg>