<?xml version="1.0" encoding="UTF-8"?>
<svg width="18px" height="20px" viewBox="0 0 18 20" version="1.1" xmlns="http://www.w3.org/2000/svg" xmlns:xlink="http://www.w3.org/1999/xlink">
    <title>Configurations</title>
    <g id="Dashboard-" stroke="none" stroke-width="1" fill="none" fill-rule="evenodd" opacity="0.5">
        <g id="Artboard-00_4" transform="translate(-259.000000, -785.000000)">
            <g id="Group" transform="translate(253.000000, 780.000000)">
                <g id="Document-Found-Line" transform="translate(3.000000, 3.000000)">
                    <rect id="Rectangle" x="0" y="0" width="24" height="24"></rect>
                    <path d="M13.54,10 L7.08,10 C6.95962629,10.0045613 6.84308844,9.95721781 6.76,9.87 C6.66964362,9.78413681 6.61894891,9.66464212 6.61998397,9.54 C6.63020451,9.29029795 6.83029795,9.09020451 7.08,9.08 L13.54,9.08 C13.6641756,9.0812384 13.7828147,9.13157011 13.87,9.22 C13.9515392,9.30684036 13.997875,9.4208976 14,9.54 C14.0057619,9.66367611 13.9591508,9.78405665 13.8716037,9.87160372 C13.7840566,9.95915078 13.6636761,10.0057619 13.54,10 L13.54,10 Z" id="Path" fill="#1D1D1B" fill-rule="nonzero"></path>
                    <path d="M13.54,12.87 L7.08,12.87 C6.95833019,12.8707083 6.84205571,12.8198382 6.76,12.73 C6.66964362,12.6441368 6.61894891,12.5246421 6.61998397,12.4 C6.62167794,12.2788343 6.67215155,12.1634661 6.76,12.08 C6.84205571,11.9901618 6.95833019,11.9392917 7.08,11.94 L13.54,11.94 C13.6646421,11.9389489 13.7841368,11.9896436 13.87,12.08 C13.9551385,12.1644887 14.0020945,12.2800729 14,12.4 C14.0048848,12.5233672 13.9577131,12.6431108 13.87,12.73 C13.7841368,12.8203564 13.6646421,12.8710511 13.54,12.87 L13.54,12.87 Z" id="Path" fill="#1D1D1B" fill-rule="nonzero"></path>
                    <path d="M13.54,7.13 L7.08,7.13 C6.95962629,7.13456131 6.84308844,7.08721781 6.76,7 C6.67157011,6.91281468 6.6212384,6.79417564 6.62,6.67 C6.63020451,6.42029795 6.83029795,6.22020451 7.08,6.21 L13.54,6.21 C13.6646421,6.20894891 13.7841368,6.25964362 13.87,6.35 C13.9572178,6.43308844 14.0045613,6.54962629 14,6.67 C14.0025217,6.79295517 13.9557039,6.91180033 13.87,7 C13.7831108,7.08771308 13.6633672,7.1348848 13.54,7.13 L13.54,7.13 Z" id="Path" fill="#1D1D1B" fill-rule="nonzero"></path>
                    <path d="M17.88,13.62 L17.88,4.54 C17.8808434,3.92947608 17.6399596,3.34344538 17.21,2.91 C16.773884,2.47670068 16.1847679,2.232433 15.57,2.23 L5.42,2.23 C4.80913386,2.23715278 4.2248418,2.48090652 3.79,2.91 C3.35729725,3.34243183 3.11290087,3.92826432 3.11,4.54 L3.11,17.46 C3.1154775,18.733502 4.14649798,19.7645225 5.42,19.77 L13.18,19.77 C13.531554,20.3485406 14.0189894,20.8325433 14.6,21.18 C15.1784787,21.5292699 15.8349868,21.7286284 16.51,21.76 C17.1971369,21.8061782 17.8848617,21.6789491 18.51,21.39 C19.0968112,21.0944111 19.6068958,20.6664877 20,20.14 C20.8329326,19.0487793 21.07389,17.6168903 20.6439786,16.3131589 C20.2140672,15.0094275 19.1686443,14.0017284 17.85,13.62 L17.88,13.62 Z M12.76,18.85 L5.42,18.85 C5.04537923,18.8608742 4.68244743,18.7189143 4.41462496,18.45675 C4.14680249,18.1945858 3.99712642,17.8347675 3.99995646,17.46 L3.99995646,4.54 C3.9970211,4.16608991 4.14700417,3.80720955 4.41515675,3.54661057 C4.68330932,3.28601159 5.04632759,3.14634135 5.42,3.16 L15.57,3.16 C15.9445828,3.14641916 16.3085754,3.28579383 16.5782928,3.5460806 C16.8480103,3.80636738 17.0002461,4.16517117 17.0000003,4.54 L17.0000003,13.47 L16.81,13.47 C16.159621,13.4680547 15.5182924,13.6223851 14.94,13.92 C14.3604875,14.2137705 13.8572327,14.6382848 13.47,15.16 C13.0832633,15.6822268 12.826198,16.2889009 12.72,16.93 C12.6089698,17.5738899 12.6500641,18.234823 12.84,18.86 L12.76,18.85 Z M16.76,20.85 C16.3088442,20.8466468 15.8631055,20.7513744 15.45,20.57 C15.036943,20.3881495 14.6684141,20.1185774 14.37,19.78 C14.1203077,19.508773 13.9175334,19.1978523 13.77,18.86 C13.5673951,18.3665715 13.491755,17.8302151 13.55,17.3 C13.6003958,16.7732624 13.7826708,16.2677072 14.08,15.83 C14.3722318,15.3854698 14.7709962,15.0210816 15.24,14.77 C15.7078014,14.5205059 16.2298251,14.39 16.76,14.39 L17,14.39 C17.3180519,14.4112617 17.6313257,14.4786324 17.93,14.59 C18.6364647,14.8511327 19.2303003,15.3495304 19.61,16 C20.0009629,16.6623392 20.1394645,17.4436305 20,18.2 C19.8579607,18.9439243 19.4620973,19.6154783 18.88,20.1 C18.2885316,20.5923633 17.5394343,20.8550799 16.77,20.84 L16.76,20.85 Z" id="Shape" fill="#1D1D1B" fill-rule="nonzero"></path>
                    <path d="M16.72,18.88 C16.5996658,18.8820092 16.4803049,18.858137 16.37,18.81 C16.2587082,18.7620606 16.1570562,18.6942927 16.07,18.61 L15.25,17.78 C15.135675,17.665675 15.091026,17.4990427 15.1328718,17.3428719 C15.1747177,17.186701 15.296701,17.0647177 15.4528719,17.0228718 C15.6090427,16.981026 15.775675,17.025675 15.89,17.14 L16.71,17.95 L18.47,16.21 C18.5588004,16.1252314 18.6772434,16.078572 18.8,16.08 C18.9195036,16.0801218 19.0342692,16.1267453 19.12,16.21 C19.2084299,16.2971853 19.2587616,16.4158244 19.260016,16.54 C19.2610511,16.6646421 19.2103564,16.7841368 19.12,16.87 L17.39,18.61 C17.2986625,18.6936428 17.1938555,18.7612602 17.08,18.81 C16.9664289,18.8589462 16.8436372,18.8828224 16.72,18.88 Z" id="Path" fill="#1D1D1B" fill-rule="nonzero"></path>
                </g>
            </g>
        </g>
    </g>
</svg>