<?xml version="1.0" encoding="UTF-8"?>
<svg width="10px" height="7px" viewBox="0 0 10 7" version="1.1" xmlns="http://www.w3.org/2000/svg" xmlns:xlink="http://www.w3.org/1999/xlink">
    <title>down_arrow</title>
    <defs>
        <path d="M6.87257522,2.05119243 L11.9437185,5.86290627 C12.0433632,5.93780396 12.0847845,6.06142401 12.0597529,6.17572129 C12.0845389,6.28930704 12.0430683,6.41241763 11.9437185,6.48709373 L11.9437185,6.48709373 L6.87257522,10.2988076 C6.67823301,10.4448845 6.41072406,10.4448845 6.21638185,10.2988076 C6.19318763,10.2813737 6.17256883,10.2607549 6.15513494,10.2375607 C6.05275999,10.10136 6.08018117,9.9079562 6.21638185,9.80558125 L6.21638185,9.80558125 L11.0464798,6.17504192 L6.21638185,2.54441875 C6.08018117,2.4420438 6.05275999,2.24864003 6.15513494,2.11243935 C6.17256883,2.08924512 6.19318763,2.06862632 6.21638185,2.05119243 C6.41072406,1.90511554 6.67823301,1.90511554 6.87257522,2.05119243 Z" id="path-1"></path>
    </defs>
    <g id="Dashboard-" stroke="none" stroke-width="1" fill="none" fill-rule="evenodd">
        <g id="Artboard-14" transform="translate(-233.000000, -491.000000)">
            <g id="Group-20" transform="translate(139.000000, 430.000000)">
                <g id="Group-10" transform="translate(10.000000, 48.317881)">
                    <g id="Group-6" transform="translate(18.000000, 0.000000)">
                        <g id="down_arrow" transform="translate(62.000000, 10.000000)">
                            <mask id="mask-2" fill="white">
                                <use xlink:href="#path-1"></use>
                            </mask>
                            <use id="Shape" fill="#1F263E" transform="translate(9.080050, 6.175000) rotate(-270.000000) translate(-9.080050, -6.175000) " xlink:href="#path-1"></use>
                        </g>
                    </g>
                </g>
            </g>
        </g>
    </g>
</svg>