<?xml version="1.0" encoding="UTF-8"?>
<svg width="15px" height="15px" viewBox="0 0 15 15" version="1.1" xmlns="http://www.w3.org/2000/svg" xmlns:xlink="http://www.w3.org/1999/xlink">
    <title>download_main</title>
    <g id="Dashboard-" stroke="none" stroke-width="1" fill="none" fill-rule="evenodd">
        <g id="Artboard-18" transform="translate(-1230.000000, -105.000000)" fill="#808A8F" fill-rule="nonzero">
            <g id="Group-7" transform="translate(1223.000000, 99.000000)">
                <g id="download-(1)" transform="translate(7.000000, 6.000000)">
                    <path d="M9.93409542,7.36223972 C9.82783708,7.14620931 9.61159974,7.00984609 9.37473767,7.00984609 L8.12474462,7.00984609 L8.12474462,0.637247873 C8.12474462,0.285481551 7.84537336,0 7.49976275,0 C7.15415213,0 6.87478087,0.285481551 6.87478087,0.637247873 L6.87478087,7.00981622 L5.62478782,7.00981622 C5.38792575,7.00981622 5.17165912,7.14617944 5.06543007,7.36220984 C4.96043147,7.57824025 4.98293117,7.83632967 5.12481404,8.02941879 L6.99978896,10.5784402 C7.00790409,10.5892835 7.02041369,10.593107 7.02917334,10.6032932 C7.07042278,10.6529993 7.11917213,10.6912348 7.1735464,10.726274 C7.1960461,10.7402837 7.2135361,10.7587742 7.23791078,10.7702448 C7.31791947,10.8084803 7.40539877,10.8333333 7.49979204,10.8333333 C7.59418531,10.8333333 7.68166461,10.8084803 7.76228853,10.7702448 C7.78604798,10.7587742 7.80415321,10.7402837 7.82603768,10.726274 C7.88041195,10.6912348 7.9291613,10.6529993 7.97041075,10.6032932 C7.97852587,10.593107 7.9916507,10.5892835 7.99979512,10.5784402 L9.87477004,8.02941879 C10.0172388,7.83635954 10.0397385,7.57827012 9.93409542,7.36223972 Z" id="Path"></path>
                    <path d="M14.3750098,9.16666667 C14.0293945,9.16666667 13.7500195,9.45702691 13.7500195,9.81480469 L13.7500195,11.7592491 C13.7500195,12.831276 12.9087598,13.7036936 11.8750195,13.7036936 L3.12500977,13.7036936 C2.09126953,13.7036936 1.25000977,12.831276 1.25000977,11.7592491 L1.25000977,9.81480469 C1.25000977,9.45702691 0.970634766,9.16666667 0.625019531,9.16666667 C0.279375,9.16666667 0,9.45702691 0,9.81480469 L0,11.7592491 C0,13.5461936 1.40188477,15 3.12500977,15 L11.8750195,15 C13.5981152,15 15,13.5461936 15,11.7592491 L15,9.81480469 C15,9.45702691 14.720625,9.16666667 14.3750098,9.16666667 Z" id="Path"></path>
                </g>
            </g>
        </g>
    </g>
</svg>