<?xml version="1.0" encoding="UTF-8"?>
<svg width="19px" height="18px" viewBox="0 0 19 18" version="1.1" xmlns="http://www.w3.org/2000/svg" xmlns:xlink="http://www.w3.org/1999/xlink">
    <title>edit</title>
    <g id="Dashboard-" stroke="none" stroke-width="1" fill="none" fill-rule="evenodd">
        <g id="Artboard-10" transform="translate(-884.000000, -251.000000)" fill="#8592AC" fill-rule="nonzero">
            <g id="Group-3" transform="translate(884.000000, 251.000000)">
                <path d="M18.1809303,1.50613246 L17.2208358,0.539210585 C16.5069648,-0.179736862 15.2625619,-0.179736862 14.5486909,0.539210585 L13.3069451,1.78978666 C13.3060594,1.79067866 13.3042881,1.79246265 13.3034024,1.79335464 C13.3025167,1.79424664 13.3007453,1.79603063 13.2998596,1.79692262 L5.90695498,9.24150747 C5.82547095,9.32357095 5.77321488,9.42971828 5.75727236,9.54389356 L5.27722512,12.9281201 C5.25331133,13.0949231 5.30911017,13.262618 5.42690774,13.3821452 C5.52699139,13.4847246 5.66250288,13.5400282 5.80244285,13.5400282 C5.82724234,13.5400282 5.85292752,13.5382443 5.87772701,13.5346763 L9.23805767,13.0512153 C9.35142676,13.0351594 9.45771028,12.9816398 9.53830862,12.9004683 L16.9303275,5.45499145 C16.9312132,5.45409946 16.9329846,5.45231547 16.9338703,5.45142347 C16.934756,5.45053148 16.9365274,5.44874749 16.9374131,5.4478555 L18.1791589,4.19727942 C18.5360944,3.83780569 18.7327189,3.36058872 18.7327189,2.85215194 C18.7327189,2.34371516 18.5369801,1.86560618 18.1809303,1.50613246 Z M8.91300724,12.0165019 L6.42951563,12.3741916 L6.78467973,9.87214748 L13.6798232,2.92886345 L15.8081507,5.07232588 L8.91300724,12.0165019 Z M17.4289744,3.43997621 L16.5592209,4.31591467 L14.4308934,2.17245224 L15.3006469,1.29651379 C15.6132975,0.980747789 16.1571149,0.980747789 16.4688799,1.29651379 L17.4289744,2.26343566 C17.5857426,2.42042667 17.6707694,2.63004534 17.6707694,2.85215194 C17.6707694,3.07425853 17.5857426,3.28298521 17.4289744,3.43997621 Z M17.7380823,9.43685423 L17.7380823,13.896826 C17.7380823,16.1598157 15.9108914,18 13.6638806,18 L4.80692054,18 C2.55990976,18 0.732718894,16.1598157 0.732718894,13.896826 L0.732718894,4.97688248 C0.732718894,2.71389281 2.55990976,0.873708467 4.80692054,0.873708467 L9.23540058,0.873708467 C9.52945166,0.873708467 9.76681819,1.11365495 9.76681819,1.40890508 C9.76681819,1.70415521 9.52856596,1.94410169 9.23540058,1.94410169 L4.80692054,1.94410169 C3.14624052,1.94410169 1.79555411,3.30439307 1.79555411,4.97688248 L1.79555411,13.896826 C1.79555411,15.5693154 3.14624052,16.9296068 4.80692054,16.9296068 L13.6638806,16.9296068 C15.3245606,16.9296068 16.6752471,15.5693154 16.6752471,13.896826 L16.6752471,9.43685423 C16.6752471,9.14071211 16.9134993,8.90165762 17.2066647,8.90165762 C17.49983,8.90165762 17.7380823,9.14071211 17.7380823,9.43685423 Z" id="edit"></path>
            </g>
        </g>
    </g>
</svg>