<?xml version="1.0" encoding="UTF-8"?>
<svg width="52px" height="46px" viewBox="0 0 52 46" version="1.1" xmlns="http://www.w3.org/2000/svg" xmlns:xlink="http://www.w3.org/1999/xlink">
    <title>email</title>
    <defs>
        <filter x="-4.5%" y="-3.6%" width="109.0%" height="107.3%" filterUnits="objectBoundingBox" id="filter-1">
            <feOffset dx="0" dy="2" in="SourceAlpha" result="shadowOffsetOuter1"></feOffset>
            <feGaussianBlur stdDeviation="4.5" in="shadowOffsetOuter1" result="shadowBlurOuter1"></feGaussianBlur>
            <feColorMatrix values="0 0 0 0 0.156363293   0 0 0 0 0.173159781   0 0 0 0 0.201062631  0 0 0 0.259843626 0" type="matrix" in="shadowBlurOuter1" result="shadowMatrixOuter1"></feColorMatrix>
            <feMerge>
                <feMergeNode in="shadowMatrixOuter1"></feMergeNode>
                <feMergeNode in="SourceGraphic"></feMergeNode>
            </feMerge>
        </filter>
    </defs>
    <g id="Dashboard-" stroke="none" stroke-width="1" fill="none" fill-rule="evenodd">
        <g id="login_001" transform="translate(-432.000000, -336.000000)" fill="#7C8BA0" fill-rule="nonzero" stroke="#7C8BA0" stroke-width="0.3">
            <g id="Group" filter="url(#filter-1)" transform="translate(400.000000, 167.000000)">
                <g id="Group-2" transform="translate(44.000000, 43.000000)">
                    <g id="email" transform="translate(5.000000, 143.000000)">
                        <path d="M16.1250117,0.0117070312 L1.87498828,0.0117070312 C0.8415,0.0117070312 0,0.853207031 0,1.88673047 L0,10.1367422 C0,11.1702305 0.8415,12.0117305 1.87498828,12.0117305 L16.1249766,12.0117305 C17.1584648,12.0117305 17.9999648,11.1702305 17.9999648,10.1367422 L17.9999648,1.88673047 C17.9999648,0.853207031 17.1585,0.0117070312 16.1250117,0.0117070312 Z M17.2500117,10.136707 C17.2500117,10.7569688 16.7452734,11.261707 16.1250117,11.261707 L1.87498828,11.261707 C1.25472656,11.261707 0.749988281,10.7569688 0.749988281,10.136707 L0.749988281,1.88673047 C0.749988281,1.26646875 1.25472656,0.761730469 1.87498828,0.761730469 L16.1249766,0.761730469 C16.7452383,0.761730469 17.2500117,1.26646875 17.2500117,1.88673047 L17.2500117,10.136707 L17.2500117,10.136707 Z" id="Shape"></path>
                        <path d="M16.434,1.67523047 C16.3177383,1.50423047 16.0845117,1.46148047 15.9127383,1.57774219 L9.76201172,5.78598047 C9.29851172,6.10249219 8.70001172,6.10249219 8.23725,5.78598047 L2.08648828,1.57770703 C1.91475,1.45996875 1.68148828,1.50419531 1.56522656,1.67519531 C1.44896484,1.84619531 1.49248828,2.07945703 1.66348828,2.19645703 L7.81425,6.40469531 C8.17425,6.65145703 8.58751172,6.77443359 9,6.77443359 C9.41248828,6.77443359 9.82575,6.65142187 10.18575,6.40469531 L16.3365117,2.19645703 C16.5075117,2.07945703 16.551,1.84623047 16.434,1.67523047 Z" id="Path"></path>
                        <path d="M6.66298828,6.14598047 C6.53023828,5.98774219 6.29325,5.96598047 6.13423828,6.09799219 L1.63423828,9.84800391 C1.47522656,9.98075391 1.4535,10.2177422 1.58625,10.3767539 C1.6605,10.4660156 1.76698828,10.5117539 1.87498828,10.5117539 C1.95975,10.5117539 2.04525,10.4832422 2.115,10.4247422 L6.615,6.67473047 C6.77401172,6.54198047 6.79573828,6.30495703 6.66298828,6.14598047 Z" id="Path"></path>
                        <path d="M16.3657617,9.84796875 L11.8657617,6.09795703 C11.7060117,5.96594531 11.4697617,5.98770703 11.3370117,6.14594531 C11.2042617,6.30569531 11.2260234,6.54194531 11.385,6.67469531 L15.885,10.424707 C15.9554883,10.483207 16.04025,10.5117188 16.1250117,10.5117188 C16.2322734,10.5117188 16.3387617,10.4659805 16.41375,10.3767188 C16.5465,10.2169687 16.5247383,9.98071875 16.3657617,9.84796875 Z" id="Path"></path>
                    </g>
                </g>
            </g>
        </g>
    </g>
</svg>