<?xml version="1.0" encoding="UTF-8"?>
<svg width="22px" height="22px" viewBox="0 0 22 22" version="1.1" xmlns="http://www.w3.org/2000/svg" xmlns:xlink="http://www.w3.org/1999/xlink">
    <title>Engagements</title>
    <g id="Dashboard-" stroke="none" stroke-width="1" fill="none" fill-rule="evenodd">
        <g id="Artboard-00_5" transform="translate(-21.000000, -144.000000)" fill="#5B6064">
            <g id="Group-7-Copy-2" transform="translate(0.000000, 125.000000)">
                <path d="M30.7312069,33.7650345 C33.5062414,33.7650345 35.7650345,31.018069 35.7650345,27.641069 C35.7650345,24.262931 33.5066207,21.5167241 30.7312069,21.5167241 C29.3577241,21.5167241 28.0756552,22.1736897 27.1213103,23.3651034 C26.2022414,24.5147931 25.6962414,26.0327931 25.6977586,27.641069 C25.6981379,31.018069 27.9550345,33.7650345 30.7312069,33.7650345 L30.7312069,33.7650345 Z M30.7312069,22.8591034 C32.7654483,22.8591034 34.4222759,25.0037241 34.4222759,27.641069 C34.4222759,30.2768966 32.7654483,32.4234138 30.7312069,32.4234138 C28.6958276,32.4234138 27.0401379,30.2772759 27.039,27.641069 C27.039,25.0041034 28.6943103,22.8591034 30.7312069,22.8591034 L30.7312069,22.8591034 Z M34.959,33.0940345 C34.5876552,33.0940345 34.2876207,33.3948276 34.2876207,33.7654138 C34.2876207,34.1367586 34.5876552,34.4367931 34.959,34.4367931 C37.253069,34.4367931 39.1207931,36.3037586 39.1207931,38.5989655 C39.1207931,38.8944483 38.8795517,39.1353103 38.5833103,39.1353103 L22.8783448,39.1353103 C22.5821034,39.1353103 22.3423793,38.8944483 22.3423793,38.5989655 C22.3423793,36.3037586 24.2089655,34.4367931 26.5026552,34.4367931 C26.874,34.4367931 27.1740345,34.1367586 27.1740345,33.7654138 C27.1740345,33.3948276 26.874,33.0940345 26.5026552,33.0940345 C23.4681724,33.0940345 21,35.5625862 21,38.5985862 C21,39.6341034 21.8428276,40.4773103 22.8783448,40.4773103 L38.582931,40.4773103 C39.6184483,40.4773103 40.4627931,39.6341034 40.4627931,38.5985862 C40.4627931,35.5622069 37.9934828,33.0940345 34.959,33.0940345 L34.959,33.0940345 Z M31.2216552,20.7713793 C31.703,20.4868966 32.215069,20.3423793 32.7449655,20.3423793 C34.7792069,20.3423793 36.4360345,22.4885172 36.4360345,25.1243448 C36.4360345,25.5969655 36.3833103,26.0616207 36.2786207,26.5046552 C36.1947931,26.8646207 36.4189655,27.2268621 36.7793103,27.3106897 C36.8305172,27.3239655 36.8817241,27.3292759 36.9325517,27.3292759 C37.2382759,27.3292759 37.5132759,27.1202759 37.5853448,26.8115172 C37.7127931,26.2675862 37.7784138,25.6993793 37.7784138,25.1247241 C37.7784138,21.7481034 35.5196207,19 32.7449655,19 C31.9817931,19 31.2193793,19.2124138 30.5388966,19.6148621 C30.2202759,19.8037586 30.1144483,20.214931 30.3029655,20.535069 C30.4914828,20.8536897 30.9045517,20.9595172 31.2216552,20.7713793 L31.2216552,20.7713793 Z M37.1074138,30.4096552 C36.736069,30.4096552 36.4360345,30.7096897 36.4360345,31.0810345 C36.4360345,31.4516207 36.736069,31.7524138 37.1074138,31.7524138 C39.4014828,31.7524138 41.1341724,33.663 41.1341724,35.9589655 C41.1341724,36.0352069 41.1182414,36.1091724 41.0882759,36.1774483 C40.9373103,36.5161724 41.0894138,36.912931 41.4288966,37.0642759 C41.5165172,37.1037241 41.6098276,37.1211724 41.7001034,37.1211724 C41.9587931,37.1211724 42.2034483,36.9728621 42.3149655,36.7232759 C42.4211724,36.4816552 42.4761724,36.2248621 42.4761724,35.9585862 C42.4761724,32.9233448 40.1418966,30.4096552 37.1074138,30.4096552 L37.1074138,30.4096552 Z" id="Engagements"></path>
            </g>
        </g>
    </g>
</svg>