<?xml version="1.0" encoding="UTF-8"?>
<svg width="16px" height="14px" viewBox="0 0 16 14" version="1.1" xmlns="http://www.w3.org/2000/svg" xmlns:xlink="http://www.w3.org/1999/xlink">
    <title>filter_main</title>
    <g id="Dashboard-" stroke="none" stroke-width="1" fill="none" fill-rule="evenodd">
        <g id="Artboard-18" transform="translate(-1191.000000, -106.000000)">
            <g id="Group-5" transform="translate(1185.000000, 99.000000)">
                <g id="filter_main" transform="translate(7.000000, 7.000000)">
                    <path d="M1.86666667,0 C2.25326599,-7.10171439e-17 2.56666667,0.313400675 2.56666667,0.7 L2.56666667,13.3 C2.56666667,13.6865993 2.25326599,14 1.86666667,14 C1.48006734,14 1.16666667,13.6865993 1.16666667,13.3 L1.16666667,0.7 C1.16666667,0.313400675 1.48006734,4.04084051e-16 1.86666667,0 Z M6.53333333,0 C6.91993266,-7.10171439e-17 7.23333333,0.313400675 7.23333333,0.7 L7.23333333,13.3 C7.23333333,13.6865993 6.91993266,14 6.53333333,14 C6.14673401,14 5.83333333,13.6865993 5.83333333,13.3 L5.83333333,0.7 C5.83333333,0.313400675 6.14673401,7.37150959e-16 6.53333333,0 Z M12.3666667,0 C12.753266,-7.10171439e-17 13.0666667,0.313400675 13.0666667,0.7 L13.0666667,13.3 C13.0666667,13.6865993 12.753266,14 12.3666667,14 C11.9800673,14 11.6666667,13.6865993 11.6666667,13.3 L11.6666667,0.7 C11.6666667,0.313400675 11.9800673,7.37150959e-16 12.3666667,0 Z" id="Combined-Shape" fill="#808A8F"></path>
                    <path d="M6.41666667,8.16666667 C7.38316498,8.16666667 8.16666667,8.95016835 8.16666667,9.91666667 C8.16666667,10.883165 7.38316498,11.6666667 6.41666667,11.6666667 C5.45016835,11.6666667 4.66666667,10.883165 4.66666667,9.91666667 C4.66666667,8.95016835 5.45016835,8.16666667 6.41666667,8.16666667 Z M1.75,2.33333333 C2.71649831,2.33333333 3.5,3.11683502 3.5,4.08333333 C3.5,5.04983165 2.71649831,5.83333333 1.75,5.83333333 C0.783501688,5.83333333 0,5.04983165 0,4.08333333 C0,3.11683502 0.783501688,2.33333333 1.75,2.33333333 Z M12.25,2.33333333 C13.2164983,2.33333333 14,3.11683502 14,4.08333333 C14,5.04983165 13.2164983,5.83333333 12.25,5.83333333 C11.2835017,5.83333333 10.5,5.04983165 10.5,4.08333333 C10.5,3.11683502 11.2835017,2.33333333 12.25,2.33333333 Z" id="Combined-Shape" stroke="#808A8F" stroke-width="1.5" fill="#FFFFFF"></path>
                </g>
            </g>
        </g>
    </g>
</svg>