<?xml version="1.0" encoding="UTF-8"?>
<svg width="17px" height="17px" viewBox="0 0 17 17" version="1.1" xmlns="http://www.w3.org/2000/svg" xmlns:xlink="http://www.w3.org/1999/xlink">
    <title>info</title>
    <g id="Dashboard-" stroke="none" stroke-width="1" fill="none" fill-rule="evenodd">
        <g id="Artboard-00_4_1" transform="translate(-698.000000, -376.000000)" fill-rule="nonzero">
            <g id="info" transform="translate(699.000000, 377.000000)">
                <circle id="Oval-2-Copy-2" stroke="#D0DDE2" fill="#F8FAFB" cx="7.5" cy="7.5" r="7.5"></circle>
                <g id="Imported-Layers-Copy-24" transform="translate(5.585673, 3.000000)" fill="#9199AA">
                    <path d="M0.490973684,3.38723437 C0.5175,3.28732031 0.704447368,3.29625 0.815921053,3.28352344 C1.75144737,3.17692969 2.68792105,3.07764844 3.62455263,2.97878906 C3.6585,2.97520312 3.69592105,2.99833594 3.76128947,3.0178125 C3.45071053,3.90002344 3.14155263,4.7773125 2.83318421,5.65474219 C2.60218421,6.31174219 2.36005263,6.966 2.15147368,7.628625 C2.10615789,7.77255469 2.18321053,7.947 2.20389474,8.1073125 C2.36352632,8.05148437 2.55568421,8.02814062 2.67552632,7.93265625 C2.88844737,7.76299219 3.04934211,7.54270312 3.24986842,7.35897656 C3.31121053,7.30279687 3.44257895,7.21877344 3.52373684,7.26834375 C3.59660526,7.31278125 3.56692105,7.44771094 3.52705263,7.50079687 C3.14486842,8.00957812 2.73710526,8.52658594 2.09202632,8.76803906 C1.68915789,8.91892969 1.20063158,8.98024219 0.764289474,8.94529687 C0.200447368,8.90022656 -0.0785526316,8.40817969 0.0982105263,7.87865625 C0.422921053,6.90567187 0.777473684,5.94063281 1.11647368,4.97144531 C1.20994737,4.70432812 1.30847368,4.43735156 1.37652632,4.16475 C1.48034211,3.74885156 1.32323684,3.57707812 0.849236842,3.55211719 C0.784736842,3.54867187 0.720078947,3.5465625 0.6555,3.54382031 C0.600710526,3.49164844 0.4725,3.45684375 0.490973684,3.38723437" id="Fill-1"></path>
                    <path d="M3.31278947,1.87108673 C2.63565789,1.87171875 2.16560526,1.49308594 2.17476316,0.95428125 C2.18344737,0.439875 2.67126316,0.0381796875 3.28918421,0.0366279391 C3.93371053,0.035015625 4.44489474,0.436078125 4.45484211,0.951046875 C4.46494737,1.47817969 3.978,1.87045312 3.31278947,1.87108673" id="Fill-2"></path>
                </g>
                <g id="Imported-Layers-Copy-24" transform="translate(5.585673, 3.000000)" fill="#9199AA">
                    <path d="M0.490973684,3.38723437 C0.5175,3.28732031 0.704447368,3.29625 0.815921053,3.28352344 C1.75144737,3.17692969 2.68792105,3.07764844 3.62455263,2.97878906 C3.6585,2.97520312 3.69592105,2.99833594 3.76128947,3.0178125 C3.45071053,3.90002344 3.14155263,4.7773125 2.83318421,5.65474219 C2.60218421,6.31174219 2.36005263,6.966 2.15147368,7.628625 C2.10615789,7.77255469 2.18321053,7.947 2.20389474,8.1073125 C2.36352632,8.05148437 2.55568421,8.02814062 2.67552632,7.93265625 C2.88844737,7.76299219 3.04934211,7.54270312 3.24986842,7.35897656 C3.31121053,7.30279687 3.44257895,7.21877344 3.52373684,7.26834375 C3.59660526,7.31278125 3.56692105,7.44771094 3.52705263,7.50079687 C3.14486842,8.00957812 2.73710526,8.52658594 2.09202632,8.76803906 C1.68915789,8.91892969 1.20063158,8.98024219 0.764289474,8.94529687 C0.200447368,8.90022656 -0.0785526316,8.40817969 0.0982105263,7.87865625 C0.422921053,6.90567187 0.777473684,5.94063281 1.11647368,4.97144531 C1.20994737,4.70432812 1.30847368,4.43735156 1.37652632,4.16475 C1.48034211,3.74885156 1.32323684,3.57707812 0.849236842,3.55211719 C0.784736842,3.54867187 0.720078947,3.5465625 0.6555,3.54382031 C0.600710526,3.49164844 0.4725,3.45684375 0.490973684,3.38723437" id="Fill-1"></path>
                    <path d="M3.31278947,1.87108673 C2.63565789,1.87171875 2.16560526,1.49308594 2.17476316,0.95428125 C2.18344737,0.439875 2.67126316,0.0381796875 3.28918421,0.0366279391 C3.93371053,0.035015625 4.44489474,0.436078125 4.45484211,0.951046875 C4.46494737,1.47817969 3.978,1.87045312 3.31278947,1.87108673" id="Fill-2"></path>
                </g>
            </g>
        </g>
    </g>
</svg>