<?xml version="1.0" encoding="UTF-8"?>
<svg width="22px" height="22px" viewBox="0 0 22 22" version="1.1" xmlns="http://www.w3.org/2000/svg" xmlns:xlink="http://www.w3.org/1999/xlink">
    <title>Live view</title>
    <g id="Dashboard-" stroke="none" stroke-width="1" fill="none" fill-rule="evenodd">
        <g id="Artboard-00_5" transform="translate(-21.000000, -202.000000)" fill="#5F6165" fill-rule="nonzero">
            <g id="Group-7-Copy-2" transform="translate(0.000000, 185.000000)">
                <g id="focus" transform="translate(21.000000, 17.000000)">
                    <path d="M20.7938974,11.3481028 L21,11 L20.7938974,10.6517237 C20.7593513,10.5935909 19.9302454,9.20881539 18.3194925,7.82108976 C16.1771325,5.97559003 13.6532563,5 11.0205432,5 C8.38850086,5 5.85841977,5.97506942 3.70381768,7.81970152 C2.08384133,9.20673297 1.24534426,10.5904674 1.21046278,10.6487737 L1,11 L1.21046278,11.3512263 C1.24534426,11.4095326 2.08384133,12.793267 3.70381768,14.1802985 C5.85841977,16.0249306 8.38850086,17 11.0205432,17 C13.6532563,17 16.1771325,16.02441 18.3194925,14.1789102 C19.9302454,12.7911846 20.7593513,11.4064091 20.7938974,11.3481028 L20.7938974,11.3481028 Z M17.4612069,13.1838848 C15.5340052,14.831733 13.3669934,15.6671101 11.0205432,15.6671101 C8.67325449,15.6671101 6.49919923,14.8312124 4.55891701,13.182323 C3.55540371,12.3295928 2.87504719,11.4661037 2.54182845,11 C2.87521488,10.5335493 3.5555714,9.67023368 4.55891701,8.81750348 C6.49919923,7.16878758 8.67308676,6.33271634 11.0205432,6.33271634 C13.3669934,6.33271634 15.5338375,7.16826702 17.4612069,8.81594172 C18.4601924,9.67006016 19.1346794,10.534764 19.4633702,11 C19.134344,11.4654095 18.4600246,12.3301134 17.4612069,13.1838848 Z" id="Shape"></path>
                    <path d="M11,7 C8.7944006,7 7,8.7944006 7,11 C7,13.2055994 8.7944006,15 11,15 C13.2055994,15 15,13.2055994 15,11 C15,8.7944006 13.2055994,7 11,7 Z M11,13.6686314 C9.52856028,13.6686314 8.33136865,12.4714397 8.33136865,11 C8.33136865,9.52856028 9.52856028,8.33136865 11,8.33136865 C12.4714397,8.33136865 13.6686314,9.52856028 13.6686314,11 C13.6686314,12.4714397 12.4714397,13.6686314 11,13.6686314 Z" id="Shape"></path>
                    <path d="M2.63980885,1.31147541 L3.3442623,1.31147541 C3.70641623,1.31147541 4,1.01789164 4,0.655737705 C4,0.293583771 3.70641623,4.4495704e-17 3.3442623,0 L2,0 C0.8954305,2.02906125e-16 -1.3527075e-16,0.8954305 0,2 L0,3.35222672 C1.54834691e-16,3.70998202 0.290017976,4 0.647773279,4 C1.00552858,4 1.29554656,3.70998202 1.29554656,3.35222672 L1.29554656,2.6557377 C1.29554656,1.91332214 1.89739329,1.31147541 2.63980885,1.31147541 Z" id="Path"></path>
                    <path d="M18,0.655737705 C18,1.01789164 18.2935838,1.31147541 18.6557377,1.31147541 L19.3601911,1.31147541 C20.1026067,1.31147541 20.7044534,1.91332214 20.7044534,2.6557377 L20.7044534,3.35222672 C20.7044534,3.70998202 20.9944714,4 21.3522267,4 C21.709982,4 22,3.70998202 22,3.35222672 L22,2 C22,0.8954305 21.1045695,-2.02906125e-16 20,0 L18.6557377,0 C18.2935838,6.65265985e-17 18,0.293583771 18,0.655737705 Z" id="Path"></path>
                    <path d="M0.647773279,18 C0.290017976,18 -4.38123887e-17,18.290018 0,18.6477733 L0,20 C1.3527075e-16,21.1045695 0.8954305,22 2,22 L3.3442623,22 C3.70641623,22 4,21.7064162 4,21.3442623 C4,20.9821084 3.70641623,20.6885246 3.3442623,20.6885246 L2.63980885,20.6885246 C1.89739329,20.6885246 1.29554656,20.0866779 1.29554656,19.3442623 L1.29554656,18.6477733 C1.29554656,18.290018 1.00552858,18 0.647773279,18 Z" id="Path"></path>
                    <path d="M19.3601911,20.6885246 L18.6557377,20.6885246 C18.2935838,20.6885246 18,20.9821084 18,21.3442623 C18,21.7064162 18.2935838,22 18.6557377,22 L20,22 C21.1045695,22 22,21.1045695 22,20 L22,18.6477733 C22,18.290018 21.709982,18 21.3522267,18 C20.9944714,18 20.7044534,18.290018 20.7044534,18.6477733 L20.7044534,19.3442623 C20.7044534,20.0866779 20.1026067,20.6885246 19.3601911,20.6885246 Z" id="Path"></path>
                </g>
            </g>
        </g>
    </g>
</svg>