<?xml version="1.0" encoding="UTF-8"?>
<svg width="18px" height="18px" viewBox="0 0 18 18" version="1.1" xmlns="http://www.w3.org/2000/svg" xmlns:xlink="http://www.w3.org/1999/xlink">
    <title>logout</title>
    <g id="Dashboard-" stroke="none" stroke-width="1" fill="none" fill-rule="evenodd">
        <g id="Artboard-00_2" transform="translate(-1090.000000, -144.000000)" stroke="#5F6165">
            <g id="Group-5" transform="translate(1075.000000, 63.000000)">
                <g id="Bitmap-Copy-2-Copy-6" transform="translate(16.000000, 82.000000)">
                    <g id="Mask">
                        <rect id="path-11" x="0" y="0" width="15.5555556" height="15.5997475" rx="7.77777778"></rect>
                    </g>
                    <g id="noun_Log-Out_54483" transform="translate(3.428571, 4.000000)" fill="#5F6165" stroke-width="0.4">
                        <path d="M3.963882,8 C4.97942176,8 5.99483996,7.60992891 6.76804606,6.82978677 C6.88684179,6.71002917 6.88684179,6.51579125 6.76804606,6.39603365 C6.64925028,6.27627605 6.45689107,6.27615333 6.33821687,6.39603365 C5.02890987,7.71692544 2.89885413,7.71704816 1.58954711,6.39603365 C0.280361687,5.07477372 0.280361687,2.92514959 1.58954711,1.60401237 C2.89873253,0.282875149 5.02878828,0.282752447 6.33821687,1.60401237 C6.45701265,1.72389266 6.64937186,1.72389266 6.76804606,1.60401237 C6.88684179,1.48425478 6.88684179,1.29001682 6.76804606,1.17025923 C5.22175542,-0.39014776 2.70600857,-0.390025057 1.15971796,1.17025923 C-0.386572653,2.73054351 -0.386572653,5.2695025 1.15971796,6.82990949 C1.93280247,7.60992891 2.94822064,8 3.963882,8 Z" id="Shape"></path>
                        <path d="M9.05466384,3.76925866 C9.05454373,3.76912827 9.05442368,3.76912827 9.05442368,3.76899789 L7.77644311,2.38125753 C7.65912779,2.25386654 7.46916581,2.25386654 7.35197054,2.38125753 C7.23465522,2.50851813 7.23465522,2.71492544 7.35197054,2.84218604 L8.11806244,3.67407399 L3.72876418,3.67407399 C3.5629377,3.67407399 3.42857143,3.81998036 3.42857143,4.0000489 C3.42857143,4.18011743 3.5629377,4.3260238 3.72876418,4.3260238 L8.11806244,4.3260238 L7.35197054,5.15791175 C7.23465522,5.28530274 7.23465522,5.49157966 7.35197054,5.61884026 C7.4105682,5.68247057 7.48741755,5.71428571 7.56426685,5.71428571 C7.6411162,5.71428571 7.7178455,5.68247057 7.77656316,5.61884026 L9.05502405,4.23057835 C9.15805023,4.11870376 9.17041818,3.94580667 9.09224794,3.81919802 C9.08132093,3.80133459 9.06883293,3.78451429 9.05466384,3.76925866 Z" id="Shape"></path>
                    </g>
                </g>
            </g>
        </g>
    </g>
</svg>