<?xml version="1.0" encoding="UTF-8"?>
<svg width="24px" height="24px" viewBox="0 0 24 24" version="1.1" xmlns="http://www.w3.org/2000/svg" xmlns:xlink="http://www.w3.org/1999/xlink">
    <title>Manage</title>
    <g id="Dashboard-" stroke="none" stroke-width="1" fill="none" fill-rule="evenodd">
        <g id="Artboard-00_5" transform="translate(-20.000000, -363.000000)" fill="#5F6165" fill-rule="nonzero" stroke="#5F6165" stroke-width="0.5">
            <g id="Group-7-Copy-2" transform="translate(0.000000, 349.000000)">
                <g id="Manage" transform="translate(21.000000, 15.000000)">
                    <path d="M20.585168,8.5930625 L20.5816445,8.5930625 C20.2493242,8.5930625 19.9546445,8.37821875 19.8484258,8.05840234 C19.7083906,7.63717969 19.5364727,7.22240234 19.3374414,6.82571484 C19.1857617,6.52330078 19.2418359,6.16214844 19.4761016,5.92788281 C19.4764023,5.927625 19.4794531,5.92457422 19.4797539,5.92427344 C20.0313867,5.37264062 20.0313867,4.47502344 19.4797539,3.92339062 L18.0766953,2.52033203 C17.5250195,1.96869922 16.6274883,1.96865625 16.0766719,2.51947266 C16.0763711,2.51973047 16.0733203,2.52278125 16.0730195,2.52308203 C15.8379375,2.75820703 15.4768281,2.81432422 15.1743711,2.66260156 C14.7772539,2.46339844 14.3624336,2.29148047 13.9416406,2.15166016 C13.6218672,2.04539844 13.4070234,1.75071875 13.4070234,1.41491797 C13.4069805,0.634691406 12.7722461,0 11.9921055,0 L10.0078945,0 C9.22775391,0 8.5930625,0.634691406 8.5930625,1.41835547 C8.5930625,1.75063281 8.37821875,2.0453125 8.05844531,2.15157422 C7.63748047,2.2914375 7.22270312,2.46335547 6.82567187,2.66251562 C6.52325781,2.81423828 6.16214844,2.75812109 5.92423047,2.52024609 C5.37259766,1.96861328 4.47498047,1.96861328 3.92334766,2.52024609 L2.52028906,3.92334766 C1.96865625,4.47498047 1.96865625,5.37259766 2.52303906,5.92698047 C2.75816406,6.16210547 2.81423828,6.52325781 2.66251562,6.82567187 C2.46335547,7.22270312 2.29148047,7.63748047 2.15157422,8.05840234 C2.0453125,8.37817578 1.75063281,8.5930625 1.41483203,8.5930625 C0.634691406,8.5930625 -2.44249065e-15,9.22775391 -2.44249065e-15,10.0078945 L-2.44249065e-15,11.9921055 C-2.44249065e-15,12.7722461 0.634691406,13.4069375 1.41835547,13.4069375 C1.75063281,13.4069375 2.0453125,13.6217812 2.15157422,13.9415547 C2.2914375,14.3625625 2.46335547,14.7773398 2.66251562,15.1743281 C2.81419531,15.4767422 2.75816406,15.8378516 2.52024609,16.0757695 C1.96861328,16.6274453 1.96861328,17.5250195 2.52024609,18.0766523 L3.92330469,19.4797109 C4.4749375,20.0313437 5.37255469,20.0313867 5.9269375,19.4769609 C6.1620625,19.2418359 6.52312891,19.1857617 6.82562891,19.3374414 C7.22257422,19.5366016 7.63735156,19.7084766 8.05835937,19.8483828 C8.37813281,19.9546445 8.59301953,20.2493242 8.59301953,20.585125 C8.59301953,21.3652656 9.22771094,21.999957 10.0078516,21.999957 L11.9920625,21.999957 C12.7722031,21.999957 13.4069375,21.3652656 13.4069375,20.5816016 C13.4069375,20.2493242 13.6217812,19.9546445 13.9415547,19.8483828 C14.3624766,19.7085195 14.7772539,19.5366016 15.1743281,19.3374414 C15.4766992,19.1858477 15.8378516,19.2418359 16.0757266,19.4797109 C16.6274023,20.0313437 17.5249766,20.0313867 18.0766094,19.4797109 L19.479668,18.0766523 C20.0313008,17.5250195 20.0313008,16.6274453 19.476918,16.0730195 C19.241793,15.8378945 19.1857187,15.4767422 19.3373984,15.1743711 C19.5364727,14.7775117 19.7083906,14.3627773 19.8483828,13.9415547 C19.9546445,13.6217812 20.2492812,13.4069375 20.585125,13.4069375 C21.3652656,13.4069375 21.999957,12.7722461 21.999957,11.9921055 L21.999957,10.0078945 C21.999957,9.22775391 21.3653086,8.5930625 20.585168,8.5930625 Z M21.3554687,11.9921055 C21.3554687,12.4168516 21.0099141,12.7624062 20.5816445,12.7624062 C19.9711445,12.7624062 19.4306836,13.154625 19.2367656,13.7383125 C19.1065273,14.1301875 18.9465547,14.5161328 18.7613164,14.8853633 C18.4848984,15.4364375 18.5893555,16.0968672 19.0239414,16.5314961 C19.324293,16.8318477 19.324293,17.3205312 19.0239414,17.6208828 L17.6208828,19.0239414 C17.3205742,19.32425 16.8318047,19.32425 16.5287891,19.0211914 C16.0969102,18.5893125 15.4363516,18.4849844 14.8854062,18.7613164 C14.515918,18.9466406 14.1300156,19.1066133 13.7383555,19.2367227 C13.154625,19.4306836 12.7624492,19.9711445 12.7624492,20.585125 C12.7624492,21.0098711 12.4168945,21.3554258 11.9921055,21.3554258 L10.0078945,21.3554258 C9.58314844,21.3554258 9.23759375,21.0098711 9.23759375,20.5816016 C9.23759375,19.9711445 8.84541797,19.4306836 8.26164453,19.2367227 C7.86994141,19.1065703 7.48399609,18.9465977 7.11463672,18.7613164 C6.56214453,18.4842109 5.90201563,18.5904297 5.46846094,19.0239414 C5.16810938,19.324293 4.67942578,19.32425 4.37907422,19.0239414 L2.97601563,17.6208828 C2.67566406,17.3205312 2.67570703,16.8318477 2.97876563,16.5287461 C3.41064453,16.0968672 3.51505859,15.4364375 3.23859766,14.8853203 C3.05331641,14.515918 2.89334375,14.1300156 2.76319141,13.7383125 C2.56923047,13.154582 2.02876953,12.7624062 1.41478906,12.7624062 C0.990042969,12.7624062 0.644488281,12.4168516 0.644488281,11.9921055 L0.644488281,10.0078945 C0.644488281,9.58314844 0.990042969,9.23759375 1.4183125,9.23759375 C2.02876953,9.23759375 2.56923047,8.84541797 2.76319141,8.26164453 C2.89334375,7.86998437 3.05327344,7.48408203 3.23859766,7.11463672 C3.51505859,6.5635625 3.41064453,5.90313281 2.97601563,5.46846094 C2.67566406,5.16810937 2.67570703,4.67942578 2.97601563,4.37907422 L4.37907422,2.97601562 C4.67942578,2.67562109 5.16810938,2.67566406 5.47121094,2.97876562 C5.90308984,3.41060156 6.5635625,3.51510156 7.11463672,3.23864062 C7.48408203,3.05331641 7.87002734,2.89334375 8.26164453,2.76323437 C8.845375,2.56927344 9.23755078,2.0288125 9.23755078,1.41483203 C9.23755078,0.990085937 9.58310547,0.64453125 10.0078516,0.64453125 L11.9920625,0.64453125 C12.4168516,0.64453125 12.7624062,0.990085937 12.7624062,1.41835547 C12.7624062,2.0288125 13.154582,2.56927344 13.7383125,2.76323437 C14.1298867,2.89334375 14.515832,3.05331641 14.8853203,3.23864062 C15.4363945,3.51510156 16.0969102,3.4106875 16.5278867,2.979625 C16.5281875,2.97936719 16.5312383,2.97631641 16.5315391,2.97601562 C16.8318047,2.67570703 17.3205742,2.67570703 17.6208828,2.97601562 L19.0239414,4.37907422 C19.324293,4.67942578 19.324293,5.16810937 19.0248437,5.46760156 C19.024543,5.46785937 19.0214922,5.47091016 19.0211914,5.47121094 C18.5893555,5.90308984 18.4849414,6.56351953 18.7613164,7.11463672 C18.9465547,7.48378125 19.1064844,7.86972656 19.2367656,8.26160156 C19.4306836,8.84533203 19.9711445,9.23755078 20.5816445,9.23755078 L20.585168,9.23755078 C21.0099141,9.23755078 21.3554687,9.58310547 21.3554687,10.0078516 L21.3554687,11.9921055 Z" id="Shape"></path>
                    <path d="M14.8430391,15.7145313 C13.7624609,16.5965078 12.3976445,17.0822266 11,17.0822266 C7.64624609,17.0822266 4.91777344,14.3537539 4.91777344,11 C4.91777344,9.60725391 5.40044141,8.24617578 6.27691797,7.16744531 C6.38915234,7.02930078 6.36818359,6.82635938 6.23003906,6.714125 C6.09189453,6.60184766 5.88895312,6.62285937 5.77671875,6.76100391 C4.80717187,7.95428906 4.27324219,9.45969922 4.27324219,11 C4.27324219,14.7091484 7.29085156,17.7267578 11,17.7267578 C12.5457148,17.7267578 14.05525,17.1894766 15.2505547,16.2139141 C15.3884414,16.1013789 15.4090234,15.8983516 15.2964453,15.7604648 C15.1839531,15.6225352 14.9809258,15.6019531 14.8430391,15.7145313 L14.8430391,15.7145313 Z" id="Path"></path>
                    <path d="M11,6.34180078 C8.43145703,6.34180078 6.34175781,8.43145703 6.34175781,11 C6.34175781,13.568543 8.43141406,15.6582422 11,15.6582422 C13.5685859,15.6582422 15.6581992,13.568543 15.6581992,11 C15.6581992,8.43145703 13.568543,6.34180078 11,6.34180078 L11,6.34180078 Z M11,15.0137109 C8.78685156,15.0137109 6.98628906,13.2131914 6.98628906,11 C6.98628906,8.78685156 8.78680859,6.98633203 11,6.98633203 C13.2131484,6.98633203 15.013668,8.78685156 15.013668,11 C15.013668,13.2131484 13.2131484,15.0137109 11,15.0137109 Z" id="Shape"></path>
                    <path d="M11,4.27324219 C9.51267969,4.27324219 8.10304688,4.74886328 6.92351172,5.64875781 C6.78201563,5.75669531 6.75481641,5.95894922 6.86275391,6.10044531 C6.97073438,6.24198437 7.17294531,6.26909766 7.31444141,6.16120312 C8.38071094,5.34776172 9.65516406,4.91777344 11,4.91777344 C14.3537539,4.91777344 17.0822266,7.64624609 17.0822266,11 C17.0822266,12.3448359 16.6522383,13.6192891 15.8387969,14.6856016 C15.7308164,14.8270977 15.7580586,15.0293516 15.8995547,15.1372891 C16.040707,15.2450117 16.2430469,15.2183711 16.3512422,15.0765312 C17.2510938,13.8969531 17.7267578,12.4873203 17.7267578,11 C17.7267578,7.29085156 14.7091484,4.27324219 11,4.27324219 Z" id="Path"></path>
                </g>
            </g>
        </g>
    </g>
</svg>