<?xml version="1.0" encoding="UTF-8"?>
<svg width="37px" height="35px" viewBox="0 0 37 35" version="1.1" xmlns="http://www.w3.org/2000/svg" xmlns:xlink="http://www.w3.org/1999/xlink">
    <title>Oranization</title>
    <defs>
        <filter x="-4.5%" y="-3.6%" width="109.0%" height="107.3%" filterUnits="objectBoundingBox" id="filter-1">
            <feOffset dx="0" dy="2" in="SourceAlpha" result="shadowOffsetOuter1"></feOffset>
            <feGaussianBlur stdDeviation="4.5" in="shadowOffsetOuter1" result="shadowBlurOuter1"></feGaussianBlur>
            <feColorMatrix values="0 0 0 0 0.156363293   0 0 0 0 0.173159781   0 0 0 0 0.201062631  0 0 0 0.259843626 0" type="matrix" in="shadowBlurOuter1" result="shadowMatrixOuter1"></feColorMatrix>
            <feMerge>
                <feMergeNode in="shadowMatrixOuter1"></feMergeNode>
                <feMergeNode in="SourceGraphic"></feMergeNode>
            </feMerge>
        </filter>
    </defs>
    <g id="Dashboard-" stroke="none" stroke-width="1" fill="none" fill-rule="evenodd">
        <g id="login_001" transform="translate(-439.000000, -413.000000)" fill="#7C8BA0" stroke="#7C8BA0" stroke-width="0.5">
            <g id="Group" filter="url(#filter-1)" transform="translate(400.000000, 167.000000)">
                <g id="Group-2" transform="translate(44.000000, 43.000000)">
                    <path d="M10.3113667,219.5659 C11.4817222,219.5659 12.4341,220.518278 12.4341,221.688633 L12.4341,221.688633 L12.4341,224.877267 C12.4341,226.047622 11.4817222,227 10.3113667,227 L10.3113667,227 L7.12273333,227 C5.95237778,227 5,226.047622 5,224.877267 L5,224.877267 L5,221.688633 C5,220.518278 5.95237778,219.5659 7.12273333,219.5659 L7.12273333,219.5659 Z M19.8772667,219.5659 C21.0476222,219.5659 22,220.518278 22,221.688633 L22,221.688633 L22,224.877267 C22,226.047622 21.0476222,227 19.8772667,227 L19.8772667,227 L16.6886333,227 C15.5182778,227 14.5659,226.047622 14.5659,224.877267 L14.5659,224.877267 L14.5659,221.688633 C14.5659,220.518278 15.5182778,219.5659 16.6886333,219.5659 L16.6886333,219.5659 Z M10.3113667,220.167322 L7.12273333,220.167322 C6.28368889,220.167322 5.60123333,220.849589 5.60123333,221.688633 L5.60123333,221.688633 L5.60123333,224.877267 C5.60123333,225.716311 6.28387778,226.398767 7.12273333,226.398767 L7.12273333,226.398767 L10.3113667,226.398767 C11.1502222,226.398767 11.8326778,225.716122 11.8326778,224.877267 L11.8326778,224.877267 L11.8326778,221.688633 C11.8326778,220.8494 11.1500333,220.167322 10.3113667,220.167322 L10.3113667,220.167322 Z M19.8772667,220.167322 L16.6886333,220.167322 C15.8495889,220.167322 15.1673222,220.849589 15.1673222,221.688633 L15.1673222,221.688633 L15.1673222,224.877267 C15.1673222,225.716311 15.8497778,226.398767 16.6886333,226.398767 L16.6886333,226.398767 L19.8770778,226.398767 C20.7163111,226.398767 21.3985778,225.716122 21.3987667,224.877267 L21.3987667,224.877267 L21.3987667,221.688633 C21.3987667,220.8494 20.7163111,220.167322 19.8772667,220.167322 L19.8772667,220.167322 Z M10.3113667,210 C11.4817222,210 12.4341,210.952378 12.4341,212.122733 L12.4341,212.122733 L12.4341,215.311367 C12.4341,216.481722 11.4817222,217.433911 10.3113667,217.433911 L10.3113667,217.433911 L7.12273333,217.433911 C5.95237778,217.433911 5,216.481722 5,215.311367 L5,215.311367 L5,212.122733 C5,210.952378 5.95237778,210 7.12273333,210 L7.12273333,210 Z M19.8772667,210 C21.0476222,210 22,210.952378 22,212.122733 L22,212.122733 L22,215.311367 C22,216.481722 21.0476222,217.433911 19.8772667,217.433911 L19.8772667,217.433911 L16.6886333,217.433911 C15.5182778,217.433911 14.5659,216.481722 14.5659,215.311367 L14.5659,215.311367 L14.5659,212.122733 C14.5659,210.952378 15.5182778,210 16.6886333,210 L16.6886333,210 Z M10.3113667,210.601044 L7.12273333,210.601044 C6.28368889,210.601044 5.60123333,211.283689 5.60123333,212.122733 L5.60123333,212.122733 L5.60123333,215.311367 C5.60123333,216.150222 6.28387778,216.832678 7.12273333,216.832678 L7.12273333,216.832678 L10.3113667,216.832678 C11.1502222,216.832678 11.8326778,216.150033 11.8326778,215.311367 L11.8326778,215.311367 L11.8326778,212.122733 C11.8326778,211.2835 11.1500333,210.601044 10.3113667,210.601044 L10.3113667,210.601044 Z M19.8772667,210.601044 L16.6886333,210.601044 C15.8495889,210.601044 15.1673222,211.283689 15.1673222,212.122733 L15.1673222,212.122733 L15.1673222,215.311367 C15.1673222,216.150222 15.8497778,216.832678 16.6886333,216.832678 L16.6886333,216.832678 L19.8770778,216.832678 C20.7163111,216.832678 21.3985778,216.150033 21.3987667,215.311367 L21.3987667,215.311367 L21.3987667,212.122733 C21.3987667,211.2835 20.7163111,210.601044 19.8772667,210.601044 L19.8772667,210.601044 Z" id="Oranization"></path>
                </g>
            </g>
        </g>
    </g>
</svg>