<?xml version="1.0" encoding="UTF-8"?>
<svg width="22px" height="22px" viewBox="0 0 22 22" version="1.1" xmlns="http://www.w3.org/2000/svg" xmlns:xlink="http://www.w3.org/1999/xlink">
    <title>overview</title>
    <g id="Dashboard-" stroke="none" stroke-width="1" fill="none" fill-rule="evenodd">
        <g id="Artboard-00_5" transform="translate(-21.000000, -85.000000)" fill="#5B6064">
            <g id="List-View-(Active)" transform="translate(0.000000, 70.000000)">
                <path d="M29.2496254,16.375437 L22.3744381,16.375437 L22.3744381,23.2506243 L29.2496254,23.2506243 L29.2496254,16.375437 Z M29.2496254,24.6250624 L22.3744381,24.6250624 C21.6153008,24.6250624 21,24.0097616 21,23.2506243 L21,16.375437 C21,15.6162997 21.6153008,15 22.3744381,15 L29.2496254,15 C30.0087628,15 30.6250624,15.6162997 30.6250624,16.375437 L30.6250624,23.2506243 C30.6250624,24.0097616 30.0087628,24.6250624 29.2496254,24.6250624 L29.2496254,24.6250624 Z M29.2496254,28.7503746 L22.3744381,28.7503746 L22.3744381,35.6255619 L29.2496254,35.6255619 L29.2496254,28.7503746 Z M29.2496254,37 L22.3744381,37 C21.6153008,37 21,36.3846992 21,35.6255619 L21,28.7503746 C21,27.9902384 21.6153008,27.3749376 22.3744381,27.3749376 L29.2496254,27.3749376 C30.0087628,27.3749376 30.6250624,27.9902384 30.6250624,28.7503746 L30.6250624,35.6255619 C30.6250624,36.3846992 30.0087628,37 29.2496254,37 L29.2496254,37 Z M41.624563,16.375437 L34.7493757,16.375437 L34.7493757,23.2506243 L41.624563,23.2506243 L41.624563,16.375437 Z M41.624563,24.6250624 L34.7493757,24.6250624 C33.9902384,24.6250624 33.3749376,24.0097616 33.3749376,23.2506243 L33.3749376,16.375437 C33.3749376,15.6162997 33.9902384,15 34.7493757,15 L41.624563,15 C42.3837003,15 43,15.6162997 43,16.375437 L43,23.2506243 C43,24.0097616 42.3837003,24.6250624 41.624563,24.6250624 L41.624563,24.6250624 Z M41.624563,28.7503746 L34.7493757,28.7503746 L34.7493757,35.6255619 L41.624563,35.6255619 L41.624563,28.7503746 Z M41.624563,37 L34.7493757,37 C33.9902384,37 33.3749376,36.3846992 33.3749376,35.6255619 L33.3749376,28.7503746 C33.3749376,27.9902384 33.9902384,27.3749376 34.7493757,27.3749376 L41.624563,27.3749376 C42.3837003,27.3749376 43,27.9902384 43,28.7503746 L43,35.6255619 C43,36.3846992 42.3837003,37 41.624563,37 L41.624563,37 Z" id="overview"></path>
            </g>
        </g>
    </g>
</svg>