<?xml version="1.0" encoding="UTF-8"?>
<svg width="48px" height="52px" viewBox="0 0 48 52" version="1.1" xmlns="http://www.w3.org/2000/svg" xmlns:xlink="http://www.w3.org/1999/xlink">
    <title>password</title>
    <defs>
        <filter x="-4.5%" y="-5.0%" width="109.0%" height="110.1%" filterUnits="objectBoundingBox" id="filter-1">
            <feOffset dx="0" dy="2" in="SourceAlpha" result="shadowOffsetOuter1"></feOffset>
            <feGaussianBlur stdDeviation="4.5" in="shadowOffsetOuter1" result="shadowBlurOuter1"></feGaussianBlur>
            <feColorMatrix values="0 0 0 0 0.156363293   0 0 0 0 0.173159781   0 0 0 0 0.201062631  0 0 0 0.259843626 0" type="matrix" in="shadowBlurOuter1" result="shadowMatrixOuter1"></feColorMatrix>
            <feMerge>
                <feMergeNode in="shadowMatrixOuter1"></feMergeNode>
                <feMergeNode in="SourceGraphic"></feMergeNode>
            </feMerge>
        </filter>
    </defs>
    <g id="Dashboard-" stroke="none" stroke-width="1" fill="none" fill-rule="evenodd">
        <g id="login_002" transform="translate(-434.000000, -341.000000)" fill-rule="nonzero" stroke="#7C8BA0" stroke-width="1.2">
            <g id="Group" filter="url(#filter-1)" transform="translate(400.000000, 176.000000)">
                <g id="Group-2" transform="translate(44.000000, 44.000000)">
                    <g id="password" transform="translate(7.000000, 138.000000)">
                        <path d="M11.97,6.75 L11.4,6.75 L11.4,4.5 C11.4,2.01818848 9.35490234,0 6.84,0 C4.32509766,0 2.28,2.01818848 2.28,4.5 L2.28,6.75 L1.71,6.75 C0.767607422,6.75 0,7.50668337 0,8.4375 L0,16.3125 C0,17.2433166 0.767607422,18 1.71,18 L11.97,18 C12.9123926,18 13.68,17.2433166 13.68,16.3125 L13.68,8.4375 C13.68,7.50668337 12.9123926,6.75 11.97,6.75 Z M11.8799536,6.75 L2.8000464,6.75" id="Shape"></path>
                    </g>
                </g>
            </g>
        </g>
    </g>
</svg>