<?xml version="1.0" encoding="UTF-8"?>
<svg width="16px" height="16px" viewBox="0 0 16 16" version="1.1" xmlns="http://www.w3.org/2000/svg" xmlns:xlink="http://www.w3.org/1999/xlink">
    <title>destination</title>
    <defs>
        <filter id="filter-1">
            <feColorMatrix in="SourceGraphic" type="matrix" values="0 0 0 0 1.000000 0 0 0 0 1.000000 0 0 0 0 1.000000 0 0 0 1.000000 0"></feColorMatrix>
        </filter>
    </defs>
    <g id="Dashboard-" stroke="none" stroke-width="1" fill="none" fill-rule="evenodd">
        <g id="destination" transform="translate(-940.000000, -27.000000)" filter="url(#filter-1)">
            <g transform="translate(940.000000, 27.000000)">
                <path d="M15.53125,4.89196875 C15.790125,4.89196875 16,4.68209375 16,4.42321875 L16,1.041875 C16,0.783 15.790125,0.573125 15.53125,0.573125 L11.4274063,0.573125 L11.4274063,0.46875 C11.4274063,0.209875 11.2175313,0 10.9586563,0 C10.6997813,0 10.4899063,0.209875 10.4899063,0.46875 L10.4899063,1.041875 L10.4899063,3.95446875 L3.2098125,3.95446875 C1.43990625,3.95446875 0,5.392625 0,7.16040625 C0,8.9281875 1.43990625,10.3663438 3.2098125,10.3663438 L13.5769375,10.3663438 C14.3960938,10.3663438 15.0625,11.0315313 15.0625,11.8491563 C15.0625,12.6667812 14.3960938,13.3319687 13.5769375,13.3319687 C13.5769375,13.3319687 4.3650625,13.332875 4.35309375,13.3338125 C4.138125,12.3447188 3.25540625,11.6014063 2.20178125,11.6014063 C0.9876875,11.6014063 0,12.588 0,13.8007187 C0,15.0134062 0.9876875,16 2.20175,16 C3.255375,16 4.13809375,15.2567187 4.3530625,14.267625 C4.36503125,14.2685625 13.5769375,14.2694688 13.5769375,14.2694688 C14.9130312,14.2694688 16,13.1837188 16,11.8491563 C16,10.5145938 14.9130312,9.42884375 13.5769375,9.42884375 L3.2098125,9.42884375 C1.95684375,9.42884375 0.9375,8.41125 0.9375,7.16040625 C0.9375,5.9095625 1.95684375,4.89196875 3.2098125,4.89196875 L10.4899063,4.89196875 L10.4899063,6.781625 L9.67365625,6.781625 C9.41478125,6.781625 9.20490625,6.9915 9.20490625,7.250375 C9.20490625,7.50925 9.41478125,7.719125 9.67365625,7.719125 L12.28625,7.719125 C12.545125,7.719125 12.755,7.50925 12.755,7.250375 C12.755,6.9915 12.545125,6.781625 12.28625,6.781625 L11.4274375,6.781625 L11.4274375,4.89196875 L15.53125,4.89196875 Z M2.20175,15.0625 C1.504625,15.0625 0.9375,14.4964688 0.9375,13.8007187 C0.9375,13.1049375 1.504625,12.5389063 2.20175,12.5389063 C2.898875,12.5389063 3.466,13.1049375 3.466,13.8007187 C3.466,14.4964688 2.898875,15.0625 2.20175,15.0625 Z M15.0625,1.510625 L15.0625,3.95446875 L11.4274063,3.95446875 L11.4274063,1.510625 L15.0625,1.510625 Z" id="Shape" fill="#000000" fill-rule="nonzero"></path>
            </g>
        </g>
    </g>
</svg>