<?xml version="1.0" encoding="UTF-8"?>
<svg width="16px" height="18px" viewBox="0 0 16 18" version="1.1" xmlns="http://www.w3.org/2000/svg" xmlns:xlink="http://www.w3.org/1999/xlink">
    <title>profile_setting</title>
    <g id="Dashboard-" stroke="none" stroke-width="1" fill="none" fill-rule="evenodd" opacity="0.5">
        <g id="Artboard-00_3" transform="translate(-24.000000, -190.000000)" fill="#000000" fill-rule="nonzero" stroke="#000000" stroke-width="0.1">
            <g id="Group" transform="translate(17.000000, 185.000000)">
                <g id="user-(5)" transform="translate(8.000000, 6.000000)">
                    <path d="M6.93996414,8.13696297 C8.05783322,8.13696297 9.02569079,7.73603025 9.81673073,6.94499031 C10.6075129,6.15407926 11.0085745,5.18635057 11.0085745,4.06835262 C11.0085745,2.95074131 10.6076418,1.98288371 9.81660186,1.19171493 C9.02556192,0.400932756 8.05770435,0 6.93996414,0 C5.82196622,0 4.85423749,0.400932756 4.06332645,1.1918438 C3.27241541,1.98275484 2.87135379,2.95061244 2.87135379,4.06835262 C2.87135379,5.18635057 3.27241541,6.15420813 4.06332645,6.94511917 C4.85449526,7.73590135 5.82235283,8.13696297 6.93996414,8.13696297 Z M4.76338003,1.89176851 C5.3702564,1.28489214 6.08216653,0.989895343 6.93996414,0.989895343 C7.79763288,0.989895343 8.50967194,1.28489214 9.11667715,1.89176851 C9.72355348,2.49877372 10.0186792,3.21081274 10.0186792,4.06835262 C10.0186792,4.92615023 9.72355348,5.63806039 9.11667715,6.24506559 C8.50967194,6.85207083 7.79763288,7.14706763 6.93996414,7.14706763 C6.0824243,7.14706763 5.37051414,6.85194196 4.76338003,6.24506559 C4.15637483,5.63818926 3.86124913,4.92615023 3.86124913,4.06835262 C3.86124913,3.21081274 4.15637483,2.49877372 4.76338003,1.89176851 Z" id="Shape"></path>
                    <path d="M14.0589368,12.9891385 C14.0361258,12.6599896 13.9899883,12.3009415 13.9220707,11.9217887 C13.8535088,11.5398008 13.7652288,11.1786906 13.6595506,10.8486396 C13.5502639,10.5075052 13.4019278,10.1706238 13.2182797,9.8477898 C13.0279301,9.51271261 12.8042016,9.2209377 12.5531515,8.98084203 C12.2906314,8.72966298 11.969215,8.52771453 11.5975371,8.38040946 C11.227148,8.23387761 10.8166784,8.15964512 10.3775984,8.15964512 C10.2051625,8.15964512 10.0383972,8.23039798 9.71633644,8.44007895 C9.51812541,8.56934143 9.28627776,8.71883741 9.02749506,8.88418513 C8.80621525,9.02517532 8.50645002,9.15727305 8.13618973,9.27686983 C7.77495074,9.39376019 7.4081701,9.45304311 7.04602897,9.45304311 C6.6841456,9.45304311 6.31736497,9.39376019 5.95586823,9.27686983 C5.58599455,9.15740191 5.28610045,9.02530418 5.06520727,8.88431399 C4.8088732,8.72051279 4.57689668,8.57101681 4.3757215,8.43995009 C4.05391852,8.23026911 3.88715317,8.15951625 3.7147173,8.15951625 C3.27550843,8.15951625 2.86516775,8.23387761 2.49490746,8.38053833 C2.12348726,8.52758566 1.80194206,8.72953411 1.5391642,8.98097089 C1.28811406,9.22119546 1.0643856,9.51284151 0.874164853,9.8477898 C0.69077452,10.1706238 0.542309548,10.5073764 0.433022833,10.8487685 C0.327473509,11.1788195 0.239193565,11.5398008 0.170631616,11.9217887 C0.102585171,12.300426 0.0565765034,12.659603 0.0337654874,12.9895251 C0.0113410742,13.3121014 0,13.6478229 0,13.9870241 C0,14.8687926 0.280304967,15.582636 0.83305345,16.1090938 C1.37897152,16.6285923 2.10119175,16.8920145 2.97973836,16.8920145 L11.1133506,16.8920145 C11.9916395,16.8920145 12.7138597,16.6285923 13.2599066,16.1090938 C13.812784,15.5830226 14.0930889,14.8689215 14.0930889,13.9868952 C14.0930889,13.6465342 14.0814901,13.3108126 14.0589368,12.9891385 L14.0589368,12.9891385 Z M12.5773802,15.3918997 C12.2166567,15.735225 11.7377541,15.9021192 11.1132217,15.9021192 L2.97973836,15.9021192 C2.35507714,15.9021192 1.87617454,15.735225 1.51557992,15.3920286 C1.16181573,15.055276 0.989895343,14.5955759 0.989895343,13.9870241 C0.989895343,13.6705051 1.00033428,13.3579811 1.02121218,13.0579582 C1.04157455,12.7636058 1.08320145,12.4402563 1.14493299,12.0966733 C1.20589126,11.7573432 1.28347453,11.438891 1.37574963,11.1505957 C1.46428731,10.874157 1.585044,10.6004247 1.73479772,10.3367448 C1.87772102,10.0854369 2.04216663,9.86982758 2.22362381,9.69610294 C2.39335329,9.53359051 2.60728719,9.40059064 2.85936834,9.30084072 C3.09250473,9.20856562 3.35450931,9.15804628 3.63893831,9.1504426 C3.6736059,9.16887186 3.73533744,9.20405495 3.83534509,9.26926615 C4.03884006,9.40187938 4.27339409,9.55317964 4.53269229,9.71878509 C4.8249827,9.90513954 5.2015579,10.0734514 5.65146348,10.2186945 C6.11142135,10.3674172 6.58052942,10.4429385 7.04615783,10.4429385 C7.51178628,10.4429385 7.98102322,10.3674172 8.44072336,10.2188234 C8.89101554,10.0733225 9.2674619,9.90513954 9.56013892,9.71852732 C9.82549429,9.54892674 10.0534756,9.40200825 10.2569706,9.26926615 C10.3569783,9.20418385 10.4187098,9.16887186 10.4533774,9.1504426 C10.7379353,9.15804628 10.9999398,9.20856562 11.2332051,9.30084072 C11.4851574,9.40059064 11.6990913,9.53371938 11.8688208,9.69610294 C12.050278,9.86969871 12.2147236,10.085308 12.3576469,10.3368736 C12.5075295,10.6004247 12.628415,10.8742859 12.7168238,11.1504668 C12.8092278,11.4391487 12.8869399,11.7574721 12.9477693,12.0965444 C13.009372,12.4407718 13.0511278,12.7642501 13.0714902,13.0580871 L13.0714902,13.0583448 C13.0924969,13.3572079 13.1030647,13.6696029 13.1031936,13.9870241 C13.1030647,14.5957048 12.9311443,15.055276 12.5773802,15.3918997 L12.5773802,15.3918997 Z" id="Shape"></path>
                </g>
            </g>
        </g>
    </g>
</svg>