<?xml version="1.0" encoding="UTF-8"?>
<svg width="18px" height="19px" viewBox="0 0 18 19" version="1.1" xmlns="http://www.w3.org/2000/svg" xmlns:xlink="http://www.w3.org/1999/xlink">
    <title>role_setting</title>
    <g id="Dashboard-" stroke="none" stroke-width="1" fill="none" fill-rule="evenodd" opacity="0.5">
        <g id="Artboard-00_3" transform="translate(-23.000000, -272.000000)" fill="#000000" fill-rule="nonzero" stroke="#000000" stroke-width="0.4">
            <g id="Group" transform="translate(17.000000, 267.000000)">
                <g id="profile" transform="translate(7.000000, 6.000000)">
                    <path d="M6.37176724,7.07974138 C4.41988254,7.07974138 2.83189655,5.49175539 2.83189655,3.53987069 C2.83189655,1.58798599 4.41988254,0 6.37176724,0 C8.32365194,0 9.91163793,1.58798599 9.91163793,3.53987069 C9.91163793,5.49175539 8.32365194,7.07974138 6.37176724,7.07974138 Z M6.37176724,0.707974138 C4.80997629,0.707974138 3.53987069,1.97807974 3.53987069,3.53987069 C3.53987069,5.10166164 4.80997629,6.37176724 6.37176724,6.37176724 C7.93355819,6.37176724 9.20366379,5.10166164 9.20366379,3.53987069 C9.20366379,1.97807974 7.93355819,0.707974138 6.37176724,0.707974138 Z" id="Shape"></path>
                    <path d="M6.01778017,14.8674569 L0.353987069,14.8674569 C0.158586207,14.8674569 0,14.7088707 0,14.5134698 L0,11.6815733 C0,9.92508944 1.42939978,8.49568966 3.18588362,8.49568966 L7.43372845,8.49568966 C7.62912931,8.49568966 7.78771552,8.65427586 7.78771552,8.84967672 C7.78771552,9.04507759 7.62912931,9.20366379 7.43372845,9.20366379 L3.18588362,9.20366379 C1.81949353,9.20366379 0.707974138,10.3151832 0.707974138,11.6815733 L0.707974138,14.1594828 L6.01778017,14.1594828 C6.21318103,14.1594828 6.37176724,14.318069 6.37176724,14.5134698 C6.37176724,14.7088707 6.21318103,14.8674569 6.01778017,14.8674569 Z" id="Path"></path>
                    <g id="Group" transform="translate(7.643908, 7.787716)">
                        <path d="M4.39165207,6.37176724 C3.41606371,6.37176724 2.62171673,5.57742026 2.62171673,4.6018319 C2.62171673,3.62624353 3.41606371,2.83189655 4.39165207,2.83189655 C5.36724044,2.83189655 6.16158742,3.62624353 6.16158742,4.6018319 C6.16158742,5.57742026 5.36724044,6.37176724 4.39165207,6.37176724 Z M4.39165207,3.53987069 C3.80615746,3.53987069 3.32969087,4.01633728 3.32969087,4.6018319 C3.32969087,5.18732651 3.80615746,5.6637931 4.39165207,5.6637931 C4.97714669,5.6637931 5.45361328,5.18732651 5.45361328,4.6018319 C5.45361328,4.01633728 4.97714669,3.53987069 4.39165207,3.53987069 Z" id="Shape"></path>
                        <path d="M4.95590746,9.20366379 L3.82668871,9.20366379 C3.46137406,9.20366379 3.15836113,8.9296778 3.12225445,8.56577909 L3.03234173,7.66594397 C2.81782557,7.57036746 2.61322104,7.4514278 2.4199441,7.30983297 L1.59303031,7.68293534 C1.26099044,7.83444181 0.870896686,7.70771444 0.688947333,7.39125 L0.124691945,6.41353772 C-0.0579653825,6.09707328 0.0284074623,5.69777586 0.324340652,5.48467565 L1.05284604,4.96077478 C1.03868656,4.85103879 1.02877492,4.72926724 1.02877492,4.6018319 C1.02877492,4.47439655 1.03868656,4.35191703 1.05284604,4.24288901 L0.324340652,3.71898815 C0.0284074623,3.50588793 -0.0579653825,3.10659052 0.124691945,2.79012608 L0.688947333,1.81241379 C0.871604661,1.49594935 1.25957449,1.37063793 1.59303031,1.52072845 L2.4199441,1.89383082 C2.61322104,1.75223599 2.81782557,1.63329634 3.03234173,1.53771983 L3.12225445,0.637884698 C3.15836113,0.274693966 3.46137406,0.000707974138 3.82668871,0.000707974138 L4.95590746,0.000707974138 C5.32122212,0.000707974138 5.62423505,0.274693966 5.66034173,0.638592672 L5.75025445,1.5384278 C5.96547858,1.63400431 6.17008311,1.75365194 6.36265207,1.89453879 L7.18956587,1.52143642 C7.52302169,1.37205388 7.91169949,1.4973653 8.09364884,1.81312177 L8.65790423,2.79083405 C8.84056156,3.10729849 8.75418871,3.50659591 8.45825552,3.71969612 L7.72975013,4.24359698 C7.74390962,4.35333297 7.75382126,4.47510453 7.75382126,4.60253987 C7.75382126,4.72997522 7.74390962,4.85245474 7.72975013,4.96148276 L8.45825552,5.48538362 C8.75418871,5.69848384 8.84056156,6.09778125 8.65790423,6.41424569 L8.09435682,7.39125 C7.91169949,7.70700647 7.52443763,7.83373384 7.19027384,7.68293534 L6.36336005,7.30983297 C6.17008311,7.4514278 5.96547858,7.57036746 5.75096242,7.66594397 L5.66034173,8.56648707 C5.62423505,8.9296778 5.32122212,9.20366379 4.95590746,9.20366379 L4.95590746,9.20366379 Z M2.46950229,6.54522091 C2.55091932,6.54522091 2.63162837,6.57353987 2.69676199,6.62805388 C2.93676522,6.82911853 3.20225552,6.98274892 3.4847372,7.08611315 C3.61217255,7.13283944 3.70208526,7.24823922 3.71553677,7.38346228 L3.82739669,8.49568966 L4.95661544,8.49568966 L5.06776738,7.38346228 C5.08121888,7.24823922 5.1711316,7.13283944 5.29856695,7.08611315 C5.58104863,6.98274892 5.84653893,6.82841056 6.08654216,6.62805388 C6.19132233,6.54097306 6.33574906,6.52114978 6.45893656,6.57707974 L7.48125121,7.03867888 L8.0455066,6.06096659 L7.14071565,5.41104634 C7.03027169,5.33175323 6.97575768,5.1958222 6.99841285,5.06201509 C7.02460789,4.91263254 7.04584712,4.7604181 7.04584712,4.60324784 C7.04584712,4.44607759 7.02460789,4.29386315 6.99841285,4.1444806 C6.9750497,4.01067349 7.03027169,3.87545043 7.14071565,3.79544935 L8.0455066,3.14552909 L7.48125121,2.16781681 L6.45893656,2.62870797 C6.33504108,2.68463793 6.19061436,2.66481466 6.08583419,2.57773384 C5.84653893,2.37666918 5.5817566,2.22303879 5.29785897,2.11967457 C5.17042363,2.07294828 5.08051091,1.95754849 5.0670594,1.82232543 L4.95590746,0.707974138 L3.82668871,0.707974138 L3.71553677,1.82020151 C3.70208526,1.95542457 3.61217255,2.07082435 3.4847372,2.11755065 C3.20225552,2.22091487 2.93676522,2.37525323 2.69676199,2.57560991 C2.59268979,2.66269073 2.44826307,2.68322198 2.32436759,2.62658405 L1.30205294,2.16498491 L0.737797548,3.1426972 L1.6425885,3.79261746 C1.75303246,3.87191056 1.80754647,4.00784159 1.7848913,4.14164871 C1.75869626,4.29103125 1.73745703,4.44324569 1.73745703,4.60041595 C1.73745703,4.75758621 1.75869626,4.90980065 1.7848913,5.05918319 C1.80825445,5.1929903 1.75303246,5.32821336 1.6425885,5.40821444 L0.737797548,6.0581347 L1.30205294,7.03584698 L2.32436759,6.57495582 C2.37109388,6.55513254 2.4199441,6.54522091 2.46950229,6.54522091 L2.46950229,6.54522091 Z" id="Shape"></path>
                    </g>
                </g>
            </g>
        </g>
    </g>
</svg>