<?xml version="1.0" encoding="UTF-8"?>
<svg width="24px" height="24px" viewBox="0 0 24 24" version="1.1" xmlns="http://www.w3.org/2000/svg" xmlns:xlink="http://www.w3.org/1999/xlink">
    <title>Segment</title>
    <g id="Dashboard-" stroke="none" stroke-width="1" fill="none" fill-rule="evenodd">
        <g id="Artboard-00_5" transform="translate(-20.000000, -309.000000)" fill="#5B6064" stroke="#5B6064" stroke-width="0.5">
            <g id="Group-7-Copy-2" transform="translate(0.000000, 294.000000)">
                <g id="Group" transform="translate(21.000000, 16.000000)">
                    <path d="M10.104875,22 C15.686,22 20.20975,17.4755625 20.20975,11.895125 L10.104875,11.895125 L10.104875,1.7895625 C4.5244375,1.7895625 0,6.314 0,11.895125 C0,17.4755625 4.5244375,22 10.104875,22 L10.104875,22 Z M9.417375,2.5018125 L9.417375,11.8944375 L9.417375,12.5819375 L10.104875,12.5819375 L19.4975,12.5819375 C19.1448125,17.455625 15.06725,21.3125 10.104875,21.3125 C4.9121875,21.3125 0.6875,17.0878125 0.6875,11.895125 C0.6875,6.93275 4.544375,2.8551875 9.417375,2.5018125 L9.417375,2.5018125 Z" id="Shape"></path>
                    <path d="M11.895125,0 L11.895125,10.104875 L22,10.104875 C22,4.5244375 17.4755625,0 11.895125,0 L11.895125,0 Z M12.582625,9.417375 L12.582625,0.71225 C17.22875,1.049125 20.9515625,4.77125 21.28775,9.417375 L12.582625,9.417375 L12.582625,9.417375 Z" id="Shape"></path>
                </g>
            </g>
        </g>
    </g>
</svg>