<?xml version="1.0" encoding="UTF-8"?>
<svg width="18px" height="14px" viewBox="0 0 18 14" version="1.1" xmlns="http://www.w3.org/2000/svg" xmlns:xlink="http://www.w3.org/1999/xlink">
    <title>segment_filter</title>
    <g id="Dashboard-" stroke="none" stroke-width="1" fill="none" fill-rule="evenodd" opacity="0.5">
        <g id="Artboard-14" transform="translate(-145.000000, -438.000000)">
            <g id="Group-20" transform="translate(139.000000, 430.000000)">
                <g id="Filter-Line" transform="translate(3.000000, 3.000000)">
                    <rect id="Rectangle" x="0" y="0" width="24" height="24"></rect>
                    <path d="M20.31,7.44 L11,7.44 C10.9102728,6.99863772 10.6741979,6.60048145 10.33,6.31 C9.61271183,5.70860311 8.56728817,5.70860311 7.85,6.31 C7.50580215,6.60048145 7.2697272,6.99863772 7.18,7.44 L3.69,7.44 C3.56833019,7.4392917 3.45205571,7.49016179 3.37,7.58 C3.27964362,7.66586319 3.22894891,7.78535788 3.22998397,7.91 C3.23167794,8.03116567 3.28215155,8.14653393 3.37,8.23 C3.45472206,8.31604077 3.56930951,8.36617278 3.69,8.37 L7.15,8.37 C7.24654587,8.80547635 7.48589628,9.19618071 7.83,9.48 C8.545179,10.0663556 9.574821,10.0663556 10.29,9.48 C10.645254,9.20082102 10.8955092,8.80957704 11,8.37 L20.34,8.37 C20.589702,8.35979549 20.7897955,8.15970205 20.800016,7.91 C20.8010511,7.78535788 20.7503564,7.66586319 20.66,7.58 C20.5710956,7.48195686 20.441995,7.43031662 20.31,7.44 L20.31,7.44 Z M10,8.37 C9.89358982,8.53466084 9.7496527,8.67174381 9.58,8.77 C9.2557292,8.97266981 8.8442708,8.97266981 8.52,8.77 C8.36479182,8.67014079 8.23748069,8.53250714 8.15,8.37 C8.06029078,8.23258644 8.00853934,8.073882 8,7.91 C7.99819186,7.74553287 8.0395696,7.58347005 8.12,7.44 C8.20908224,7.25848574 8.3477719,7.10592711 8.52,7 C8.68202286,6.89955084 8.869382,6.84750663 9.06,6.85 C9.25400403,6.84557592 9.44510414,6.89769413 9.61,7 C9.77075999,7.10057929 9.90190241,7.24207507 9.99,7.41 C10.0704304,7.55347005 10.1118081,7.71553287 10.11,7.88 C10.1189611,8.05033015 10.0809069,8.21984429 10,8.37 Z" id="Shape" fill="#1D1D1B" fill-rule="nonzero"></path>
                    <path d="M20.31,11.58 L18.74,11.58 C18.6481863,11.1422511 18.412287,10.7479121 18.07,10.46 C17.7272549,10.1661102 17.2914815,10.0031381 16.84,10 C16.3907348,9.9958088 15.9546698,10.1517995 15.61,10.44 C15.2594085,10.7207552 15.0215804,11.1183185 14.94,11.56 L3.69,11.56 C3.43594902,11.56 3.23,11.765949 3.23,12.02 C3.23,12.274051 3.43594902,12.48 3.69,12.48 L15,12.48 C15.1196221,12.8826514 15.3693017,13.2343127 15.71,13.48 C16.041422,13.720567 16.4404722,13.8500833 16.85,13.85 C17.2644886,13.8423277 17.6663505,13.7060441 18,13.46 C18.3375153,13.2132648 18.5836936,12.8615814 18.7,12.46 L20.31,12.46 C20.4336761,12.4657619 20.5540566,12.4191508 20.6416037,12.3316037 C20.7291508,12.2440566 20.7757619,12.1236761 20.77,12 C20.7731736,11.8847584 20.729939,11.773069 20.65,11.69 C20.5561222,11.6090112 20.4335263,11.5693479 20.31,11.58 L20.31,11.58 Z M17.69,12.5 C17.5989417,12.6466453 17.4714741,12.7672228 17.32,12.85 C17.1734991,12.9330601 17.008394,12.9777761 16.84,12.98 C16.6685003,12.9773385 16.5002638,12.9327043 16.35,12.85 C16.2038585,12.7670922 16.0829078,12.6461415 16,12.5 C15.8906475,12.3372933 15.8315308,12.1460334 15.83,11.95 C15.8328666,11.8226981 15.8600197,11.6971151 15.91,11.58 C15.9837685,11.3979375 16.1132923,11.2439091 16.28,11.14 C16.4427067,11.0306475 16.6339666,10.9715308 16.83,10.97 C17.0260334,10.9715308 17.2172933,11.0306475 17.38,11.14 C17.5415103,11.2497829 17.6695531,11.4020501 17.75,11.58 C17.7965742,11.6981731 17.8235945,11.8231418 17.83,11.95 C17.8374287,12.1430065 17.7888035,12.3340344 17.69,12.5 L17.69,12.5 Z" id="Shape" fill="#1D1D1B" fill-rule="nonzero"></path>
                    <path d="M20.31,15.75 L9.55,15.75 C9.44735998,15.3253991 9.20852848,14.9460785 8.87,14.67 C8.16408051,14.1105153 7.16591949,14.1105153 6.46,14.67 C6.12147152,14.9460785 5.88264002,15.3253991 5.78,15.75 L3.69,15.75 C3.44029795,15.7602045 3.24020451,15.960298 3.22998397,16.21 C3.22894891,16.3346421 3.27964362,16.4541368 3.37,16.54 C3.45573081,16.6232547 3.57049642,16.6698782 3.69,16.67 L5.78,16.67 C5.93829522,17.3086677 6.40952693,17.8235655 7.03170367,18.0376912 C7.65388042,18.251817 8.34218326,18.1359798 8.86,17.73 C9.20613585,17.4675338 9.45009842,17.0927507 9.55,16.67 L20.31,16.67 C20.4303737,16.6745613 20.5469116,16.6272178 20.63,16.54 C20.7203564,16.4541368 20.7710511,16.3346421 20.770016,16.21 C20.7597955,15.960298 20.559702,15.7602045 20.31,15.75 Z M7.66,17.2300001 C7.47101706,17.2300631 7.28514725,17.1818746 7.12,17.09 C6.9555043,16.9895466 6.8235438,16.8436956 6.74,16.67 C6.6550536,16.5315986 6.61006017,16.372391 6.61,16.21 C6.61297081,16.0480262 6.6577521,15.8895694 6.74,15.75 C6.8235438,15.5763044 6.9555043,15.4304534 7.12,15.33 C7.28143308,15.2291751 7.46991478,15.1803095 7.66,15.19 C7.850618,15.1875066 8.03797714,15.2395508 8.2,15.34 C8.36531381,15.4349686 8.49784234,15.5779599 8.58,15.75 C8.66696807,15.8875075 8.71213035,16.0473125 8.71,16.21 C8.71455985,16.3729988 8.66920115,16.5334988 8.58,16.67 C8.49334884,16.8363292 8.3616699,16.9749386 8.2,17.07 C8.03571327,17.1665075 7.85034288,17.221432 7.66,17.2300001 Z" id="Shape" fill="#1D1D1B" fill-rule="nonzero"></path>
                </g>
            </g>
        </g>
    </g>
</svg>