<?xml version="1.0" encoding="UTF-8"?>
<svg width="13px" height="17px" viewBox="0 0 13 17" version="1.1" xmlns="http://www.w3.org/2000/svg" xmlns:xlink="http://www.w3.org/1999/xlink">
    <title>segment_location</title>
    <g id="Dashboard-" stroke="none" stroke-width="1" fill="none" fill-rule="evenodd" opacity="0.5">
        <g id="Artboard-14" transform="translate(-148.000000, -789.000000)" fill="#000000" fill-rule="nonzero" stroke="#000000" stroke-width="0.1">
            <g id="Group-9" transform="translate(140.000000, 782.317881)">
                <g id="Group" transform="translate(0.000000, 0.317881)">
                    <g id="location" transform="translate(9.000000, 7.000000)">
                        <path d="M5.86666667,-0.05 C7.4981875,-0.05 8.97736511,0.613387771 10.0486553,1.68467801 C11.1199456,2.75596823 11.7833333,4.23514584 11.7833333,5.86666667 C11.7833333,9.94662356 6.47394427,15.3102738 6.24823195,15.5369675 C5.38514864,15.1527946 3.28528309,13.1479246 1.74360257,10.7570339 C0.724272156,9.17622151 -0.05,7.42759729 -0.05,5.86666667 C-0.05,4.23514583 0.613387767,2.75596822 1.68467799,1.68467799 C2.75596822,0.613387767 4.23514583,-0.05 5.86666667,-0.05 Z M5.86666667,1.02777778 C4.532585,1.02777778 3.32287512,1.57048001 2.44667756,2.44667756 C1.57048001,3.32287512 1.02777778,4.532585 1.02777778,5.86666667 C1.02777778,8.9301027 4.66418366,13.0831696 5.86641196,14.3750318 C7.06825255,13.0841351 10.7055556,8.92758739 10.7055556,5.86666667 C10.7055556,4.532585 10.1628533,3.32287512 9.28665579,2.44667756 C8.41045822,1.57048001 7.20074833,1.02777778 5.86666667,1.02777778 Z" id="Shape"></path>
                        <path d="M5.86666667,2.88333333 C6.68907222,2.88333333 7.43491883,3.21794148 7.97515535,3.758178 C8.51539186,4.29841452 8.85,5.04426112 8.85,5.86666667 C8.85,6.68907222 8.51539185,7.43491882 7.97515534,7.97515534 C7.43491882,8.51539185 6.68907222,8.85 5.86666667,8.85 C5.04426112,8.85 4.29841452,8.51539186 3.758178,7.97515535 C3.21794148,7.43491883 2.88333333,6.68907222 2.88333333,5.86666667 C2.88333333,5.04426111 3.21794148,4.29841451 3.75817799,3.75817799 C4.29841451,3.21794148 5.04426111,2.88333333 5.86666667,2.88333333 Z M5.86666667,3.96111111 C5.34120972,3.96111111 4.86483178,4.17479001 4.5198109,4.5198109 C4.17479001,4.86483178 3.96111111,5.34120972 3.96111111,5.86666667 C3.96111111,6.39212362 4.17479001,6.86850156 4.51981089,7.21352243 C4.86483177,7.55854332 5.34120972,7.77222221 5.86666667,7.77222221 C6.39212363,7.77222221 6.86850157,7.55854332 7.21352244,7.21352244 C7.55854332,6.86850157 7.77222221,6.39212363 7.77222221,5.86666667 C7.77222221,5.34120972 7.55854332,4.86483177 7.21352243,4.51981089 C6.86850156,4.17479001 6.39212362,3.96111111 5.86666667,3.96111111 Z" id="Shape"></path>
                    </g>
                </g>
            </g>
        </g>
    </g>
</svg>