<?xml version="1.0" encoding="UTF-8"?>
<svg width="18px" height="16px" viewBox="0 0 18 16" version="1.1" xmlns="http://www.w3.org/2000/svg" xmlns:xlink="http://www.w3.org/1999/xlink">
    <title>Setting_option</title>
    <g id="Dashboard-" stroke="none" stroke-width="1" fill="none" fill-rule="evenodd" opacity="0.5">
        <g id="Artboard-00_4" transform="translate(-259.000000, -1027.000000)">
            <g id="Group" transform="translate(253.000000, 1020.000000)">
                <g id="Presentation-Line" transform="translate(3.000000, 3.000000)">
                    <rect id="Rectangle" x="0" y="0" width="24" height="24"></rect>
                    <path d="M18.47,4.15 L5.54,4.15 C4.92956149,4.15921657 4.34600763,4.40266235 3.91,4.83 C3.48187638,5.26466087 3.24131667,5.84990314 3.23999469,6.46 L3.23999469,13.75 C3.2386908,14.3635595 3.4794466,14.9528722 3.91,15.39 C4.34344538,15.8199596 4.92947608,16.0608434 5.54,16.06 L9.85,16.06 L6.94,19.06 C6.89254315,19.0989896 6.85773778,19.1511977 6.84,19.21 C6.82515357,19.2656942 6.82515357,19.3243058 6.84,19.38 C6.82596443,19.4391792 6.82596443,19.5008208 6.84,19.56 C6.86262323,19.616366 6.89667111,19.6674378 6.94,19.71 C6.98244055,19.7488851 7.02945228,19.7824649 7.08,19.81 C7.1396213,19.8195335 7.2003787,19.8195335 7.26,19.81 C7.38417564,19.8087616 7.50281468,19.7584299 7.59,19.67 L11.13,16.02 L12.86,16.02 L16.41,19.67 C16.4951423,19.7613911 16.6151149,19.8122885 16.7399947,19.81 C16.7961956,19.8203334 16.8538044,19.8203334 16.91,19.81 C16.9650725,19.7849863 17.0157287,19.7512155 17.06,19.71 C17.1033289,19.6674378 17.1373768,19.616366 17.16,19.56 C17.1740356,19.5008208 17.1740356,19.4391792 17.16,19.38 C17.1748464,19.3243058 17.1748464,19.2656942 17.16,19.21 C17.1422622,19.1511977 17.1074568,19.0989896 17.06,19.06 L14.15,16.06 L18.46,16.06 C18.7613596,16.0586209 19.0598105,16.0009656 19.34,15.89 C19.9065472,15.6564874 20.3564874,15.2065472 20.59,14.64 C20.7019647,14.3566154 20.7596337,14.0547012 20.7600005,13.75 L20.7600005,6.46 C20.7603849,5.852507 20.5193701,5.26975484 20.09,4.84 C19.6616552,4.4060509 19.0796919,4.15817766 18.47,4.15 Z M19.85,13.75 C19.8446376,14.5115584 19.2314999,15.1291392 18.47,15.14 L5.54,15.14 C5.17226203,15.14 4.81972961,14.9932453 4.56064002,14.7322783 C4.30155043,14.4713112 4.15733523,14.1177283 4.16,13.75 L4.16,6.46 C4.15352693,6.0864565 4.2976964,5.72603283 4.56,5.46 C4.82539592,5.19672466 5.18624755,5.05238401 5.56,5.06 L18.47,5.06 C18.8439631,5.05122148 19.2052533,5.19573752 19.47,5.46 C19.7350092,5.72501687 19.8826944,6.08522466 19.8800362,6.46 L19.85,13.75 Z" id="Shape" fill="#1D1D1B" fill-rule="nonzero"></path>
                    <path d="M7.08,12.67 C7.02419447,12.683971 6.96580553,12.683971 6.91,12.67 C6.85945228,12.6424649 6.81244055,12.6088851 6.77,12.57 C6.7256868,12.5282608 6.69148492,12.476958 6.67,12.42 C6.65966658,12.3638044 6.65966658,12.3061956 6.67,12.25 C6.65973679,12.1904389 6.65973679,12.1295611 6.67,12.07 C6.69148492,12.013042 6.7256868,11.9617392 6.77,11.92 L10.17,8.27 L12.61,10.83 L16.61,7.07 C16.649801,7.02797293 16.6973362,6.99401916 16.75,6.97 C16.8642249,6.91734998 16.9957751,6.91734998 17.11,6.97 C17.1626638,6.99401916 17.210199,7.02797293 17.25,7.07 C17.2933289,7.11256221 17.3273768,7.16363402 17.35,7.22 C17.3640356,7.27917918 17.3640356,7.34082082 17.35,7.4 C17.3648464,7.45569424 17.3648464,7.51430576 17.35,7.57 C17.3322622,7.62880233 17.2974568,7.68101038 17.25,7.72 L12.51,12.12 L10.11,9.62 L7.38,12.54 C7.30166401,12.6220756 7.19345423,12.6689665 7.08,12.67 L7.08,12.67 Z" id="Path" fill="#1D1D1B" fill-rule="nonzero"></path>
                </g>
            </g>
        </g>
    </g>
</svg>