<?xml version="1.0" encoding="UTF-8"?>
<svg width="17px" height="17px" viewBox="0 0 17 17" version="1.1" xmlns="http://www.w3.org/2000/svg" xmlns:xlink="http://www.w3.org/1999/xlink">
    <title>share</title>
    <defs>
        <filter id="filter-1">
            <feColorMatrix in="SourceGraphic" type="matrix" values="0 0 0 0 0.500188 0 0 0 0 0.540336 0 0 0 0 0.560409 0 0 0 1.000000 0"></feColorMatrix>
        </filter>
    </defs>
    <g id="Dashboard-" stroke="none" stroke-width="1" fill="none" fill-rule="evenodd">
        <g id="Artboard-18" transform="translate(-1152.000000, -104.000000)">
            <g id="share" transform="translate(1147.000000, 99.000000)" filter="url(#filter-1)">
                <g transform="translate(6.000000, 6.000000)">
                    <path d="M13.2813263,15.0001144 L1.71878815,15.0001144 C0.770645156,15.0001144 0.000114440918,14.2294693 0.000114440918,13.2814407 L0.000114440918,4.21886443 C0.000114440918,3.27072144 0.770645156,2.50019074 1.71878815,2.50019074 L3.90632631,2.50019074 C4.16507722,2.50019074 4.37507631,2.7101898 4.37507631,2.96894074 C4.37507631,3.22769165 4.16507722,3.43769074 3.90632631,3.43769074 L1.71878815,3.43769074 C1.28814697,3.43769074 0.937614434,3.78822328 0.937614434,4.21886443 L0.937614434,13.2814407 C0.937614434,13.7119675 1.28814697,14.0626144 1.71878815,14.0626144 L13.2813263,14.0626144 C13.7119675,14.0626144 14.0626144,13.7119675 14.0626144,13.2814407 L14.0626144,7.96886443 C14.0626144,7.71011353 14.2726135,7.50011443 14.5313644,7.50011443 C14.7901154,7.50011443 15.0001144,7.71011353 15.0001144,7.96886443 L15.0001144,13.2814407 C15.0001144,14.2294693 14.2294693,15.0001144 13.2813263,15.0001144 L13.2813263,15.0001144 Z" id="Path" stroke="#808A8F" stroke-width="0.3" fill="#808A8F" fill-rule="nonzero"></path>
                    <path d="M4.2181778,9.99206543 C4.18384553,9.99206543 4.14939879,9.98828889 4.11506654,9.97947691 C3.9032364,9.9301529 3.75011443,9.74887849 3.75011443,9.53144074 L3.75011443,8.59394074 C3.75011443,5.23395539 6.48387908,2.50019074 9.84386443,2.50019074 L10.0000763,2.50019074 L10.0000763,0.468864434 C10.0000763,0.277633652 10.1163483,0.105743408 10.2938461,0.0338745117 C10.4706574,-0.0373077539 10.67379,0.00572203125 10.8063126,0.143852227 L14.8688507,4.36260223 C15.0438309,4.54387664 15.0438309,4.83135223 14.8688507,5.01262664 L10.8063126,9.23137664 C10.67379,9.36950684 10.4693985,9.41207886 10.2938461,9.34135436 C10.1163483,9.26948549 10.0000763,9.09759521 10.0000763,8.90636443 L10.0000763,6.87515259 L9.25758363,6.87515259 C7.2913742,6.87515259 5.52440643,7.96760561 4.64572907,9.72576141 C4.5650482,9.88826751 4.39567564,9.99206543 4.2181778,9.99206543 L4.2181778,9.99206543 Z M9.84386443,3.43769074 C7.21881867,3.43769074 5.04512786,5.40950774 4.72698211,7.95009612 C5.86315154,6.68266295 7.49256135,5.93765259 9.25758363,5.93765259 L10.4688263,5.93765259 C10.7275772,5.93765259 10.9375763,6.14765168 10.9375763,6.40640259 L10.9375763,7.7438736 L13.8806534,4.68761443 L10.9375763,1.63135529 L10.9375763,2.96894074 C10.9375763,3.22769165 10.7275772,3.43769074 10.4688263,3.43769074 L9.84386443,3.43769074 Z" id="Shape" stroke="#808A8F" stroke-width="0.3" fill="#808A8F" fill-rule="nonzero"></path>
                </g>
            </g>
        </g>
    </g>
</svg>