<?xml version="1.0" encoding="UTF-8"?>
<svg width="16px" height="16px" viewBox="0 0 16 16" version="1.1" xmlns="http://www.w3.org/2000/svg" xmlns:xlink="http://www.w3.org/1999/xlink">
    <title>lifesaver</title>
    <defs>
        <filter id="filter-1">
            <feColorMatrix in="SourceGraphic" type="matrix" values="0 0 0 0 1.000000 0 0 0 0 1.000000 0 0 0 0 1.000000 0 0 0 1.000000 0"></feColorMatrix>
        </filter>
    </defs>
    <g id="Dashboard-" stroke="none" stroke-width="1" fill="none" fill-rule="evenodd">
        <g id="lifesaver" transform="translate(-806.000000, -27.000000)" filter="url(#filter-1)">
            <g transform="translate(806.000000, 27.000000)">
                <path d="M13.656875,2.343125 C12.1458437,0.83215625 10.136875,0 8,0 C5.863125,0 3.85415625,0.83215625 2.343125,2.343125 C0.83215625,3.85415625 0,5.863125 0,8 C0,10.136875 0.83215625,12.1458438 2.343125,13.656875 C3.85415625,15.1678437 5.863125,16 8,16 C10.136875,16 12.1458438,15.1678437 13.656875,13.656875 C15.1678437,12.1458437 16,10.136875 16,8 C16,5.863125 15.1678437,3.85415625 13.656875,2.343125 Z M8,0.9375 C9.77878125,0.9375 11.405875,1.59878125 12.6489687,2.68809375 L10.4673125,4.86975 C9.7880625,4.33321875 8.9308125,4.0125625 8,4.0125625 C7.06921875,4.0125625 6.2119375,4.33321875 5.53271875,4.86975 L3.3510625,2.68809375 C4.594125,1.59878125 6.22121875,0.9375 8,0.9375 Z M11.0499375,8 C11.0499375,9.68175 9.68175,11.0499375 8,11.0499375 C6.31825,11.0499375 4.9500625,9.68175 4.9500625,8 C4.9500625,6.31825 6.31825,4.9500625 8,4.9500625 C9.68175,4.9500625 11.0499375,6.31825 11.0499375,8 Z M0.9375,8 C0.9375,6.2211875 1.5988125,4.59409375 2.68815625,3.351 L4.8698125,5.53265625 C4.33325,6.21190625 4.0125625,7.0691875 4.0125625,8.00003125 C4.0125625,8.9308125 4.33321875,9.78809375 4.86975,10.4673437 L2.68809375,12.649 C1.59878125,11.405875 0.9375,9.77878125 0.9375,8 Z M8,15.0625 C6.2211875,15.0625 4.59409375,14.4011875 3.35096875,13.3118438 L5.532625,11.1301563 C6.211875,11.66675 7.06915625,11.9874063 7.99996875,11.9874063 C8.93078125,11.9874063 9.7880625,11.66675 10.4673437,11.1301563 L12.649,13.3118125 C11.4059062,14.4011875 9.7788125,15.0625 8,15.0625 Z M13.3119062,12.6489375 L11.1302187,10.4672812 C11.6667812,9.78803125 11.9874375,8.93078125 11.9874375,8 C11.9874375,7.0691875 11.6667812,6.21190625 11.1302187,5.53265625 L13.311875,3.351 C14.4011875,4.59409375 15.0625,6.2211875 15.0625,8 C15.0625,9.77878125 14.4012187,11.405875 13.3119062,12.6489375 Z" id="Shape" fill="#000000" fill-rule="nonzero"></path>
            </g>
        </g>
    </g>
</svg>