<?xml version="1.0" encoding="UTF-8"?>
<svg width="18px" height="15px" viewBox="0 0 18 15" version="1.1" xmlns="http://www.w3.org/2000/svg" xmlns:xlink="http://www.w3.org/1999/xlink">
    <title>team_setting</title>
    <g id="Dashboard-" stroke="none" stroke-width="1" fill="none" fill-rule="evenodd" opacity="0.5">
        <g id="Artboard-00_3" transform="translate(-23.000000, -233.000000)" fill="#000000" fill-rule="nonzero">
            <g id="Group" transform="translate(17.000000, 226.000000)">
                <g id="group-(4)" transform="translate(6.000000, 7.000000)">
                    <path d="M15.1066747,7.78329068 L13.3741431,7.78329068 C13.1383476,7.78329068 12.9100536,7.81550903 12.6927871,7.87476038 C12.2642,7.03224351 11.3891883,6.4533502 10.3809128,6.4533502 L7.31844067,6.4533502 C6.31016519,6.4533502 5.43515341,7.03224351 5.00656633,7.87476038 C4.78929985,7.81550903 4.56100585,7.78329068 4.32521036,7.78329068 L2.59267873,7.78329068 C1.16307568,7.78329068 0,8.94636636 0,10.3759694 L0,13.1455725 C0,14.0033344 0.697845406,14.7011798 1.55560724,14.7011798 L16.1437462,14.7011798 C17.001508,14.7011798 17.6993534,14.0033344 17.6993534,13.1455725 L17.6993534,10.3759694 C17.6993534,8.94636636 16.5362778,7.78329068 15.1066747,7.78329068 Z M4.72576194,9.04609806 L4.72576194,13.6641428 L1.55560724,13.6641428 C1.26968663,13.6641428 1.03707149,13.4315277 1.03707149,13.1456071 L1.03707149,10.376004 C1.03707149,9.51824215 1.7349169,8.82039674 2.59267873,8.82039674 L4.32521036,8.82039674 C4.46597553,8.82039674 4.60228129,8.83951342 4.73205351,8.87473929 C4.72832005,8.9314671 4.72576194,8.98850603 4.72576194,9.04609806 Z M11.93652,13.6641428 L5.76283343,13.6641428 L5.76283343,9.0460635 C5.76283343,8.18830167 6.46067884,7.49045626 7.31844067,7.49045626 L10.3809128,7.49045626 C11.2386746,7.49045626 11.93652,8.18830167 11.93652,9.0460635 L11.93652,13.6641428 Z M16.662282,13.1456071 C16.662282,13.4315277 16.4296668,13.6641428 16.1437462,13.6641428 L12.9735915,13.6641428 L12.9735915,9.0460635 C12.9735915,8.98843689 12.9710334,8.93139796 12.9672999,8.87470472 C13.0970722,8.83951342 13.2333779,8.82036217 13.3741431,8.82036217 L15.1066747,8.82036217 C15.9644366,8.82036217 16.662282,9.51820758 16.662282,10.3759694 L16.662282,13.1456071 Z" id="Shape"></path>
                    <path d="M3.45897911,2.88665393 C2.18860111,2.88665393 1.15509023,3.92016481 1.15509023,5.19054281 C1.15509023,6.46092082 2.18860111,7.4944317 3.45897911,7.4944317 C4.72932255,7.4944317 5.762868,6.46092082 5.762868,5.19054281 C5.762868,3.92016481 4.72935712,2.88665393 3.45897911,2.88665393 Z M3.45894454,6.45736021 C2.76040776,6.45736021 2.19212715,5.8890796 2.19212715,5.19054281 C2.19212715,4.49200603 2.76040776,3.92372542 3.45894454,3.92372542 C4.15748133,3.92372542 4.72576194,4.49200603 4.72576194,5.19054281 C4.72576194,5.8890796 4.15748133,6.45736021 3.45894454,6.45736021 Z" id="Shape"></path>
                    <path d="M8.84967672,0.0252008372 C7.15247466,0.0252008372 5.77171768,1.40595782 5.77171768,3.10315988 C5.77171768,4.80036195 7.15247466,6.18111893 8.84967672,6.18111893 C10.5468788,6.18111893 11.9276358,4.80036195 11.9276358,3.10315988 C11.9276358,1.40599239 10.5468788,0.0252008372 8.84967672,0.0252008372 Z M8.84967672,5.14404744 C7.72431588,5.14404744 6.80878917,4.22852073 6.80878917,3.10315988 C6.80878917,1.97783361 7.72431588,1.06227233 8.84967672,1.06227233 C9.97503757,1.06227233 10.8905643,1.97779904 10.8905643,3.10315988 C10.8905643,4.22852073 9.97503757,5.14404744 8.84967672,5.14404744 Z" id="Shape"></path>
                    <path d="M14.2403743,2.88665393 C12.9700309,2.88665393 11.9364854,3.92016481 11.9364854,5.19054281 C11.9364854,6.46092082 12.9700309,7.4944317 14.2403743,7.4944317 C15.5107523,7.4944317 16.5442632,6.46092082 16.5442632,5.19054281 C16.5442632,3.92016481 15.5107523,2.88665393 14.2403743,2.88665393 Z M14.2403743,6.45736021 C13.5418721,6.45736021 12.9735569,5.8890796 12.9735569,5.19054281 C12.9735915,4.49200603 13.5418721,3.92372542 14.2403743,3.92372542 C14.9389111,3.92372542 15.5071917,4.49200603 15.5071917,5.19054281 C15.5071917,5.8890796 14.9389111,6.45736021 14.2403743,6.45736021 Z" id="Shape"></path>
                </g>
            </g>
        </g>
    </g>
</svg>