<?xml version="1.0" encoding="UTF-8"?>
<svg width="36px" height="37px" viewBox="0 0 36 37" version="1.1" xmlns="http://www.w3.org/2000/svg" xmlns:xlink="http://www.w3.org/1999/xlink">
    <title>user</title>
    <g id="Symbols" stroke="none" stroke-width="1" fill="none" fill-rule="evenodd">
        <g id="Header-/-New-/-Sidemenu-ON" transform="translate(-1192.000000, -18.000000)" fill="#DBDDDE" fill-rule="nonzero">
            <g id="user-avatar" transform="translate(1190.000000, 15.000000)">
                <path d="M39.9751556,41.9648478 L38.9751287,37.9648634 C38.5006629,36.0244022 37.0621868,34.4638615 35.1666672,33.8332389 L27.8331112,31.3898891 C26.0447038,30.644892 25.2264006,27.7649033 25.0496771,26.6715482 C26.4123699,25.5384276 27.2891903,23.9262464 27.4997428,22.1665658 C27.4696639,21.8660201 27.5406033,21.56399 27.7013889,21.3082097 C27.9612396,21.2431319 28.1739797,21.0570388 28.2730448,20.8082117 C28.7529015,19.6463412 29.0540814,18.4185335 29.1664282,17.1665853 C29.1666625,17.0985387 29.1583029,17.0308046 29.1414275,16.9649454 C29.0220493,16.478463 28.736026,16.0491678 28.3330464,15.7515908 L28.3330464,11.3332487 C28.3330464,8.64825919 27.5130244,7.54662286 26.6496419,6.90826598 C26.4847937,5.61498979 25.0997566,3 19.9996198,3 C15.4747328,3.18218679 11.8482293,6.80857887 11.6660369,11.3333268 L11.6660369,15.7516689 C11.2630574,16.0492459 10.9770341,16.4785411 10.8576559,16.9650236 C10.8407804,17.0308827 10.8324208,17.0986949 10.8326552,17.1666634 C10.9448457,18.4192366 11.2460256,19.6475912 11.7260385,20.8100086 C11.798228,21.0455545 11.9875299,21.2267257 12.2260519,21.2883661 C12.3194138,21.3350065 12.4944185,21.5767243 12.4944185,22.166722 C12.7062211,23.9314026 13.5881197,25.5472557 14.957844,26.6800637 C14.7828393,27.7717001 13.9694581,30.6500482 12.2311302,31.376686 L4.83257238,33.8333171 C2.9385372,34.4638615 1.50099865,36.0228398 1.02582965,37.9616603 L0.0258028291,41.9616447 C-0.0874033322,42.4077367 0.182447656,42.8611724 0.628553371,42.9743751 C0.695195783,42.9913282 0.763713246,43 0.83246509,43 L39.1668526,43 C39.6270994,43 40,42.6266421 40,42.1664095 C40,42.0983629 39.9915623,42.0307069 39.9751556,41.9648478 Z" id="user"></path>
            </g>
        </g>
    </g>
</svg>