<?xml version="1.0" encoding="UTF-8"?>
<svg width="48px" height="51px" viewBox="0 0 48 51" version="1.1" xmlns="http://www.w3.org/2000/svg" xmlns:xlink="http://www.w3.org/1999/xlink">
    <title>user</title>
    <defs>
        <filter x="-4.5%" y="-3.6%" width="109.0%" height="107.3%" filterUnits="objectBoundingBox" id="filter-1">
            <feOffset dx="0" dy="2" in="SourceAlpha" result="shadowOffsetOuter1"></feOffset>
            <feGaussianBlur stdDeviation="4.5" in="shadowOffsetOuter1" result="shadowBlurOuter1"></feGaussianBlur>
            <feColorMatrix values="0 0 0 0 0.156363293   0 0 0 0 0.173159781   0 0 0 0 0.201062631  0 0 0 0.259843626 0" type="matrix" in="shadowBlurOuter1" result="shadowMatrixOuter1"></feColorMatrix>
            <feMerge>
                <feMergeNode in="shadowMatrixOuter1"></feMergeNode>
                <feMergeNode in="SourceGraphic"></feMergeNode>
            </feMerge>
        </filter>
    </defs>
    <g id="Dashboard-" stroke="none" stroke-width="1" fill="none" fill-rule="evenodd">
        <g id="login_001" transform="translate(-433.000000, -262.000000)" fill="#7C8BA0" fill-rule="nonzero" stroke="#7C8BA0" stroke-width="0.1">
            <g id="Group" filter="url(#filter-1)" transform="translate(400.000000, 167.000000)">
                <g id="Group-2" transform="translate(44.000000, 43.000000)">
                    <g id="user" transform="translate(6.000000, 69.000000)">
                        <path d="M7.34819732,8.61560785 C8.53182341,8.61560785 9.55661377,8.19109085 10.3941855,7.35351915 C11.2314842,6.51608393 11.6561377,5.49143001 11.6561377,4.30766748 C11.6561377,3.12431432 11.2316207,2.09952392 10.394049,1.26181581 C9.55647733,0.424517036 8.53168696,0 7.34819732,0 C6.16443483,0 5.13978088,0.424517036 4.30234565,1.26195226 C3.46491043,2.09938748 3.04025695,3.12417788 3.04025695,4.30766748 C3.04025695,5.49143001 3.46491043,6.51622037 4.30234565,7.3536556 C5.14005381,8.19095437 6.16484417,8.61560785 7.34819732,8.61560785 Z M5.04357886,2.00304901 C5.68615384,1.36047403 6.43994103,1.04812448 7.34819732,1.04812448 C8.25631717,1.04812448 9.01024088,1.36047403 9.65295227,2.00304901 C10.2955272,2.6457604 10.6080133,3.39968408 10.6080133,4.30766748 C10.6080133,5.21592377 10.2955272,5.969711 9.65295227,6.61242239 C9.01024088,7.25513382 8.25631717,7.56748337 7.34819732,7.56748337 C6.44021396,7.56748337 5.68642673,7.25499737 5.04357886,6.61242239 C4.40086746,5.96984745 4.08838143,5.21592377 4.08838143,4.30766748 C4.08838143,3.39968408 4.40086746,2.6457604 5.04357886,2.00304901 Z" id="Shape"></path>
                        <path d="M14.8859331,13.7532055 C14.8617803,13.4046948 14.8129288,13.0245263 14.7410161,12.6230704 C14.6684211,12.2186126 14.5749481,11.8362607 14.4630536,11.4867949 C14.3473383,11.1255938 14.1902765,10.7688958 13.9958256,10.4270716 C13.7942789,10.0722839 13.55739,9.7633458 13.2915722,9.50912685 C13.0136097,9.24317257 12.6732865,9.02934479 12.2797452,8.87337473 C11.8875684,8.71822335 11.4529536,8.63962424 10.9880454,8.63962424 C10.8054662,8.63962424 10.6288911,8.71453904 10.2878856,8.93655419 C10.0780151,9.07342034 9.83252939,9.2317102 9.55852419,9.40678425 C9.32422791,9.55606798 9.00682943,9.69593617 8.61478913,9.82256805 C8.23230078,9.94633432 7.84394481,10.0091045 7.46050126,10.0091045 C7.07733063,10.0091045 6.68897467,9.94633432 6.30621342,9.82256805 C5.91458246,9.69607261 5.59704754,9.55620443 5.36316064,9.4069207 C5.09174809,9.23348413 4.8461259,9.07519427 4.63311688,8.93641774 C4.29238432,8.71440259 4.11580923,8.6394878 3.93323009,8.6394878 C3.4681854,8.6394878 3.03370703,8.71822335 2.64166672,8.87351117 C2.24839828,9.02920835 1.90793865,9.24303612 1.62970327,9.5092633 C1.36388548,9.76361873 1.12699651,10.0724204 0.925586315,10.4270716 C0.731408315,10.7688958 0.57421011,11.1254573 0.458494764,11.4869313 C0.346736657,11.8363971 0.253263775,12.2186126 0.18066877,12.6230704 C0.108619593,13.0239804 0.059904533,13.4042855 0.0357516926,13.7536148 C0.0120081962,14.0951661 0,14.450636 0,14.8097903 C0,15.7434275 0.296793495,16.4992616 0.882056595,17.0566875 C1.46008749,17.6067448 2.22479126,17.8856624 3.15501709,17.8856624 L11.7670771,17.8856624 C12.69703,17.8856624 13.4617338,17.6067448 14.0399011,17.0566875 C14.6253007,16.499671 14.9220942,15.743564 14.9220942,14.8096538 C14.9220942,14.4492715 14.9098131,14.0938016 14.8859331,13.7532055 L14.8859331,13.7532055 Z M13.317226,16.2973056 C12.9352835,16.6608264 12.4282102,16.837538 11.7669406,16.837538 L3.15501709,16.837538 C2.49361109,16.837538 1.98653775,16.6608264 1.60473168,16.297442 C1.23015784,15.9408805 1.04812448,15.4541391 1.04812448,14.8097903 C1.04812448,14.4746524 1.05917747,14.1437447 1.08128349,13.8260734 C1.10284364,13.5144061 1.14691919,13.172036 1.21228199,12.8082423 C1.27682604,12.4489516 1.35897303,12.1117669 1.45667608,11.8065131 C1.55042186,11.5138133 1.67828189,11.2239791 1.83684464,10.9447886 C1.9881752,10.6786978 2.16229408,10.4504057 2.35442522,10.2664619 C2.53413878,10.09439 2.76065703,9.95356656 3.02756648,9.847949 C3.27441678,9.75024595 3.55183339,9.69675489 3.8529935,9.68870393 C3.88970037,9.70821726 3.95506317,9.74546995 4.06095363,9.8145171 C4.27641889,9.95493111 4.52477022,10.1151314 4.79932125,10.2904783 C5.10880521,10.4877948 5.50753189,10.6660074 5.9839025,10.8197942 C6.47091673,10.9772653 6.96761939,11.057229 7.46063771,11.057229 C7.95365606,11.057229 8.45049517,10.9772653 8.9372365,10.8199306 C9.41401645,10.6658709 9.81260672,10.4877948 10.1225,10.2902054 C10.4034645,10.1106283 10.6448566,9.95506756 10.8603218,9.8145171 C10.9662123,9.74560643 11.0315751,9.70821726 11.0682819,9.68870393 C11.3695785,9.69675489 11.6469951,9.75024595 11.8939819,9.847949 C12.1607549,9.95356656 12.3872731,10.0945264 12.5669867,10.2664619 C12.7591179,10.4502692 12.9332367,10.6785614 13.0845673,10.944925 C13.2432665,11.2239791 13.3712629,11.5139498 13.4648723,11.8063766 C13.5627118,12.1120398 13.6449952,12.4490881 13.7094028,12.8081058 C13.7746292,13.1725819 13.8188412,13.5150884 13.8404013,13.8262098 L13.8404013,13.8264827 C13.8626438,14.142926 13.8738332,14.4736972 13.8739697,14.8097903 C13.8738332,15.4542756 13.6917999,15.9408805 13.317226,16.2973056 L13.317226,16.2973056 Z" id="Shape"></path>
                    </g>
                </g>
            </g>
        </g>
    </g>
</svg>