<?xml version="1.0" encoding="UTF-8"?>
<svg width="15px" height="17px" viewBox="0 0 15 17" version="1.1" xmlns="http://www.w3.org/2000/svg" xmlns:xlink="http://www.w3.org/1999/xlink">
    <title>User Guide</title>
    <g id="Dashboard-" stroke="none" stroke-width="1" fill="none" fill-rule="evenodd">
        <g id="Artboard-00_2" transform="translate(-1091.000000, -110.000000)" fill-rule="nonzero">
            <g id="Group-5" transform="translate(1075.000000, 63.000000)">
                <g id="Docs_3_" transform="translate(17.100000, 48.000000)">
                    <path d="M12.8571429,4.52008929 L9.3956044,3.515625 L8.40659341,0 L1.48351648,0 C0.664186813,0 0,0.674564732 0,1.50669643 L0,13.4933036 C0,14.3254353 0.664186813,15 1.48351648,15 L11.3736264,15 C12.192956,15 12.8571429,14.3254353 12.8571429,13.4933036 L12.8571429,4.52008929 Z" id="Path" stroke="#5F6165"></path>
                    <path d="M12.8571429,4.52008929 L9.3956044,4.52008929 C8.85164835,4.52008929 8.40659341,4.06808036 8.40659341,3.515625 L8.40659341,0 C8.53516484,0 8.66373626,0.0502232143 8.75271429,0.150703125 L12.7087582,4.16856027 C12.8076923,4.25892857 12.8571429,4.38950893 12.8571429,4.52008929 Z" id="Path" stroke="#5F6165" fill="#5F6165"></path>
                    <path d="M9.3956044,6.50669643 L3.46153846,6.50669643 C3.18820879,6.50669643 2.96703297,6.28206473 2.96703297,6.00446429 C2.96703297,5.72686384 3.18820879,5.50223214 3.46153846,5.50223214 L9.3956044,5.50223214 C9.66893407,5.50223214 9.89010989,5.72686384 9.89010989,6.00446429 C9.89010989,6.28206473 9.66893407,6.50669643 9.3956044,6.50669643 Z" id="Path" fill="#5F6165"></path>
                    <path d="M9.3956044,8.515625 L3.46153846,8.515625 C3.18820879,8.515625 2.96703297,8.2909933 2.96703297,8.01339286 C2.96703297,7.73579241 3.18820879,7.51116071 3.46153846,7.51116071 L9.3956044,7.51116071 C9.66893407,7.51116071 9.89010989,7.73579241 9.89010989,8.01339286 C9.89010989,8.2909933 9.66893407,8.515625 9.3956044,8.515625 Z" id="Path" fill="#5F6165"></path>
                    <path d="M7.41758242,10.5245536 L3.46153846,10.5245536 C3.18820879,10.5245536 2.96703297,10.2999219 2.96703297,10.0223214 C2.96703297,9.74472098 3.18820879,9.52008929 3.46153846,9.52008929 L7.41758242,9.52008929 C7.69091209,9.52008929 7.91208791,9.74472098 7.91208791,10.0223214 C7.91208791,10.2999219 7.69091209,10.5245536 7.41758242,10.5245536 Z" id="Path" fill="#5F6165"></path>
                </g>
            </g>
        </g>
    </g>
</svg>